<?xml version="1.0" encoding="UTF-8"?>
<svg version="1.1" xmlns="http://www.w3.org/2000/svg" width="494" height="505">
<path d="M0 0 C163.02 0 326.04 0 494 0 C494 166.65 494 333.3 494 505 C330.98 505 167.96 505 0 505 C0 338.35 0 171.7 0 0 Z " fill="#134E71" transform="translate(0,0)"/>
<path d="M0 0 C163.02 0 326.04 0 494 0 C494 166.65 494 333.3 494 505 C330.98 505 167.96 505 0 505 C0 338.35 0 171.7 0 0 Z M191 10 C190.29601074 10.20995605 189.59202148 10.41991211 188.86669922 10.63623047 C174.43572904 15.01802671 160.04737266 20.44627974 147.28125 28.578125 C144.76821509 30.14446868 142.18676751 31.50389394 139.5625 32.875 C128.86869172 38.68620114 119.81053277 46.54657557 110.69995117 54.52319336 C108.90947997 56.0786379 107.09740195 57.60673348 105.28515625 59.13671875 C102.88864847 61.18915696 100.71262399 63.25844293 98.6875 65.6875 C96.77418054 67.95293811 94.85188555 70.15361959 92.79296875 72.2890625 C76.29770998 89.50382367 63.01548334 111.58633362 55 134 C54.56171875 135.14726562 54.1234375 136.29453125 53.671875 137.4765625 C46.86825846 155.63320182 42.8211986 174.58362988 42.8671875 193.99609375 C42.86623077 194.9102858 42.86527405 195.82447784 42.86428833 196.76637268 C42.86361293 198.68482533 42.86542214 200.60328036 42.86962891 202.52172852 C42.87498001 205.42664831 42.86966514 208.33141309 42.86328125 211.23632812 C42.4997445 227.88766698 42.4997445 227.88766698 46 244 C46.35526345 246.09737014 46.66699028 248.20252415 46.9375 250.3125 C47.61420203 254.92969001 48.49058724 259.13825234 50.09765625 263.51171875 C50.80232764 265.4549035 51.44322024 267.42124866 52.05859375 269.39453125 C54.68663351 277.76117587 57.94185689 285.374469 62.04541016 293.15380859 C63.05901747 295.1141407 64.02377985 297.09333466 64.98046875 299.08203125 C68.756199 306.90357914 72.78243157 314.02356801 78 321 C79.23389517 322.76754182 80.46307428 324.53838528 81.6875 326.3125 C85.15084255 331.306417 85.15084255 331.306417 89 336 C89.66 336 90.32 336 91 336 C92 338 93 340 94 342 C94.66 342 95.32 342 96 342 C96 342.66 96 343.32 96 344 C96.66 344 97.32 344 98 344 C98.99 345.98 98.99 345.98 100 348 C100.66 348 101.32 348 102 348 C102.495 349.485 102.495 349.485 103 351 C103.66 351 104.32 351 105 351 C105.21011719 351.54914063 105.42023438 352.09828125 105.63671875 352.6640625 C107.49547472 355.84897961 110.03523725 358.0143463 112.8125 360.375 C113.41779541 360.89030273 114.02309082 361.40560547 114.64672852 361.93652344 C127.55097039 372.63596423 141.95940029 381.63529256 157 389 C158.05960937 389.52851563 159.11921875 390.05703125 160.2109375 390.6015625 C172.92141588 396.72142246 185.95011753 400.9124573 199.625 404.25 C201.12498535 404.61931641 201.12498535 404.61931641 202.65527344 404.99609375 C217.62599139 408.5140424 232.19338549 409.40578907 247.5 409.375 C248.42520447 409.37512085 249.35040894 409.3752417 250.3036499 409.37536621 C264.57333107 409.34885009 278.09812725 408.41298117 292 405 C293.48897906 404.67043502 294.97855002 404.34353085 296.46875 404.01953125 C304.95549211 402.10710853 312.97117933 399.3292994 321 396 C321.86367188 395.65582031 322.72734375 395.31164062 323.6171875 394.95703125 C336.38923222 389.82727558 348.55380013 383.64270444 360 376 C360.73347656 375.53078125 361.46695312 375.0615625 362.22265625 374.578125 C377.31808731 364.82499713 393.22830951 352.6608064 403.640625 337.83203125 C405 336 405 336 406.9296875 334.0859375 C413.26512228 327.70268812 418.14430844 319.54927171 423 312 C423.66257812 310.97777344 424.32515625 309.95554687 425.0078125 308.90234375 C428.62435232 303.19728555 431.80268885 297.68388096 434.13671875 291.33984375 C435.01949238 288.9471677 436.01559996 286.63763755 437.0625 284.3125 C437.39121094 283.57644531 437.71992188 282.84039062 438.05859375 282.08203125 C438.90233153 280.21600538 439.76260085 278.35747509 440.625 276.5 C441.95057578 273.12580711 442.73024976 269.96446743 443.44247437 266.42785645 C443.96059275 264.17160671 444.6216226 262.07529422 445.39697266 259.89648438 C451.04151627 243.19395183 452.82501285 226.26043688 452.65185547 208.71826172 C452.62499817 205.49978058 452.6518254 202.28478477 452.68359375 199.06640625 C452.73277997 168.42993725 443.97643925 138.9016646 429.875 111.875 C429.26362183 110.70251709 429.26362183 110.70251709 428.63989258 109.50634766 C426.38869867 105.29461227 423.95717257 101.38684575 421.11816406 97.54760742 C420 96 420 96 418.5546875 93.55859375 C416.31828975 89.87808992 413.72002843 86.49597127 411.125 83.0625 C410.60808594 82.37220703 410.09117187 81.68191406 409.55859375 80.97070312 C404.9510529 74.84519133 404.9510529 74.84519133 400 69 C399.34 69 398.68 69 398 69 C397.73445313 68.40832031 397.46890625 67.81664063 397.1953125 67.20703125 C385.33729727 45.31232993 348.81682735 26.75950823 326.40234375 18.2890625 C324.11455159 17.42227557 321.84796218 16.49755773 319.60546875 15.51953125 C308.82774176 10.97723894 297.53462959 7.88391444 286.0625 5.6875 C285.2360498 5.52838135 284.40959961 5.3692627 283.55810547 5.20532227 C271.67478861 3.06283499 259.73026016 2.76141208 247.6875 2.75 C246.94421448 2.74899292 246.20092896 2.74798584 245.43511963 2.74694824 C226.87911283 2.76384942 208.82417229 4.64083907 191 10 Z " fill="#000000" transform="translate(0,0)"/>
<path d="M0 0 C0.8498642 -0.00679667 1.69972839 -0.01359334 2.57534605 -0.02059597 C5.4040816 -0.0394851 8.23238111 -0.03713655 11.06117249 -0.03465271 C13.09699049 -0.04363526 15.13280339 -0.05384464 17.16860962 -0.06518555 C22.68512063 -0.09163521 28.20149196 -0.09871678 33.71806026 -0.10063291 C37.1668783 -0.10276794 40.61566103 -0.10917748 44.06447029 -0.11712456 C56.1024564 -0.14485859 68.14034298 -0.15713216 80.17835999 -0.1547699 C91.39044745 -0.15296684 102.60210223 -0.18464256 113.81408018 -0.23200089 C123.44999186 -0.27124833 133.08576219 -0.28732078 142.72175318 -0.28540367 C148.47273745 -0.2846395 154.22333679 -0.29315022 159.97424126 -0.32493782 C165.38270903 -0.35401847 170.79042474 -0.35419407 176.1989193 -0.33238792 C178.18021495 -0.32925524 180.16155776 -0.33631065 182.14277267 -0.3544693 C200.23010779 -0.50947244 200.23010779 -0.50947244 206.64304447 4.82129002 C207.41474806 5.60331492 207.41474806 5.60331492 208.20204163 6.40113831 C208.99954708 7.1503549 208.99954708 7.1503549 209.81316376 7.91470718 C215.22830644 13.71020353 214.64669744 21.18782928 214.63783264 28.60353088 C214.64790848 29.81744003 214.65798431 31.03134918 214.66836548 32.28204346 C214.69191008 35.59641744 214.7018938 38.91022743 214.70381284 42.22464585 C214.70595241 44.30006372 214.71237052 46.37542332 214.72030449 48.45082664 C214.74801909 55.70489094 214.760315 62.9587904 214.75794983 70.21290588 C214.75614885 76.95291599 214.78778742 83.69220473 214.83518082 90.43203241 C214.87453174 96.23698685 214.89049635 102.04170671 214.8885836 107.84679335 C214.88782221 111.30582356 214.8961743 114.7642121 214.92811775 118.22310829 C214.96282061 122.08587408 214.94884597 125.94766635 214.93080139 129.81056213 C214.95608917 131.50742661 214.95608917 131.50742661 214.98188782 133.23857117 C214.89193786 140.84299561 213.27876242 146.57321521 208.20204163 152.40113831 C203.8429469 155.40113831 203.8429469 155.40113831 201.20204163 155.40113831 C201.20204163 156.06113831 201.20204163 156.72113831 201.20204163 157.40113831 C198.02995931 158.98717946 194.60960966 158.55286352 191.12561035 158.55503845 C189.85850388 158.56161183 189.85850388 158.56161183 188.5657993 158.56831801 C185.71855171 158.58173509 182.87133509 158.58789145 180.02406311 158.5940094 C177.98913431 158.60190824 175.95420691 158.61017705 173.91928101 158.61878967 C167.22057946 158.64504075 160.52187158 158.660323 153.82313538 158.67457581 C151.51838235 158.67993471 149.21362936 158.68531222 146.90887642 158.69070816 C137.3207869 158.71234374 127.73269909 158.73107984 118.14459133 158.74233055 C104.39962923 158.75856399 90.6549501 158.79171957 76.91009468 158.8487314 C67.2488471 158.88743888 57.58767517 158.90696437 47.92635208 158.91225111 C42.15518407 158.91590418 36.38431766 158.92792069 30.61323357 158.96035385 C25.18032436 158.99044739 19.74789903 158.99674147 14.31492424 158.98497009 C12.32395117 158.98474945 10.33295558 158.99304671 8.34206009 159.01062393 C-11.85847963 159.17921817 -11.85847963 159.17921817 -19.95420837 151.30348206 C-20.39764587 150.65508362 -20.84108337 150.00668518 -21.29795837 149.33863831 C-21.99405212 148.36217346 -21.99405212 148.36217346 -22.70420837 147.36598206 C-24.72191443 143.74131725 -24.92662223 140.34109928 -24.95185852 136.2419281 C-24.96045898 135.19911179 -24.96905945 134.15629547 -24.97792053 133.08187866 C-24.98218048 131.9431279 -24.98644043 130.80437714 -24.99082947 129.63111877 C-24.99900696 128.42740128 -25.00718445 127.22368378 -25.01560974 125.98348999 C-25.04044605 121.99510528 -25.05713362 118.00675843 -25.07139587 114.01832581 C-25.0767587 112.64163838 -25.08213622 111.26495101 -25.08752823 109.8882637 C-25.10914996 104.15778702 -25.12788316 98.42731307 -25.13915062 92.69680595 C-25.15536789 84.50469584 -25.18849894 76.3130616 -25.24555147 68.12113082 C-25.28436152 62.3502411 -25.30379647 56.57947804 -25.30907118 50.80846131 C-25.31271038 47.36731344 -25.32457635 43.92667385 -25.35717392 40.48566818 C-25.38885922 36.63925506 -25.38885593 32.79403488 -25.38145447 28.94752502 C-25.3978598 27.82091965 -25.41426514 26.69431427 -25.4311676 25.53356934 C-25.37448692 18.31271858 -24.18159666 12.31807232 -19.79795837 6.40113831 C-18.80795837 6.07113831 -17.81795837 5.74113831 -16.79795837 5.40113831 C-16.79795837 4.74113831 -16.79795837 4.08113831 -16.79795837 3.40113831 C-10.95551536 0.90349509 -6.32036044 -0.0376511 0 0 Z " fill="#114D71" transform="translate(152.79795837402344,109.59886169433594)"/>
<path d="M0 0 C0.0825 0.61875 0.165 1.2375 0.25 1.875 C0.78035516 4.16150356 0.78035516 4.16150356 2.875 4.9375 C5.72717515 6.36358758 6.38465183 8.28621508 8 11 C12.39766723 14.95790051 15.43596179 16.12432072 21.28747272 16.12863445 C22.94201166 16.13347112 22.94201166 16.13347112 24.62997562 16.1384055 C25.84668404 16.1368569 27.06339245 16.1353083 28.31697083 16.13371277 C29.60570325 16.13597833 30.89443568 16.13824388 32.2222206 16.14057809 C35.80676258 16.14671106 39.3912813 16.14656074 42.97582734 16.14538372 C46.83891482 16.14518008 50.70199475 16.1506949 54.56507874 16.15544128 C62.13664812 16.16375679 69.70820972 16.16649654 77.27978329 16.16705366 C83.43336157 16.16752843 89.58693728 16.16958123 95.74051476 16.17275429 C113.17905661 16.18156362 130.61759231 16.18617327 148.05613641 16.18542381 C148.99675446 16.18538386 149.93737251 16.1853439 150.90649414 16.18530273 C151.84825804 16.18526185 152.79002194 16.18522097 153.76032414 16.18517885 C169.02355959 16.18477239 184.28677037 16.19434128 199.54999868 16.2084411 C215.21435628 16.22279752 230.87870185 16.22971168 246.5430662 16.22884732 C255.34052267 16.22851508 264.13795328 16.23127405 272.93540382 16.24202538 C280.42600915 16.25112076 287.9165769 16.25331359 295.40718535 16.24651595 C299.22965379 16.24324576 303.0520501 16.24321197 306.87451172 16.2518692 C311.01708878 16.26115499 315.15949806 16.25497112 319.30207825 16.24723816 C320.5120945 16.25238172 321.72211075 16.25752529 322.96879417 16.26282471 C324.63506796 16.25592652 324.63506796 16.25592652 326.33500385 16.24888897 C327.76904654 16.24921502 327.76904654 16.24921502 329.23205978 16.24954766 C332.11677559 16.0992205 332.11677559 16.0992205 335.16656226 14.92194444 C338 14 338 14 341 15 C341 15.99 341 16.98 341 18 C341.99 18 342.98 18 344 18 C343.46977549 22.50690835 341.5868709 25.41100795 339 29 C338.45730469 29.80179687 337.91460937 30.60359375 337.35546875 31.4296875 C336.46794922 32.73292969 336.46794922 32.73292969 335.5625 34.0625 C335.00691406 34.87847656 334.45132812 35.69445312 333.87890625 36.53515625 C331.78555247 39.28132306 329.46481827 41.58272274 327 44 C325.58635208 45.52205883 324.19532578 47.06316823 322.80273438 48.60449219 C310.7759673 61.88437588 297.3029601 72.67038855 282 82 C281.40219727 82.36657715 280.80439453 82.7331543 280.18847656 83.11083984 C271.36317795 88.51449385 262.69632134 93.76571556 252.921875 97.2890625 C251.15297929 97.9434101 249.41765326 98.68667877 247.6875 99.4375 C246.46019686 99.96270955 245.23086266 100.48318748 244 101 C243.29230469 101.29777344 242.58460938 101.59554687 241.85546875 101.90234375 C235.67646633 104.32529115 229.37751146 106.00574225 222.9375 107.5625 C222.13038574 107.76020996 221.32327148 107.95791992 220.49169922 108.16162109 C217.66940576 108.82315577 214.84060855 109.42176349 212 110 C211.37199493 110.12955078 210.74398987 110.25910156 210.09695435 110.39257812 C198.60636814 112.70703714 187.45220961 113.47449428 175.74145508 113.39111328 C173.06735097 113.37502918 170.39476207 113.39107156 167.72070312 113.41015625 C155.89409255 113.42486765 144.60401923 112.25940767 133 110 C131.95046143 109.79600586 130.90092285 109.59201172 129.81958008 109.38183594 C127.32473588 108.86102211 124.85021693 108.29422624 122.375 107.6875 C121.50875 107.47730225 120.6425 107.26710449 119.75 107.05053711 C106.60213035 103.7551354 94.13235521 99.04494245 82 93 C81.37722168 92.69787598 80.75444336 92.39575195 80.11279297 92.08447266 C64.53056574 84.48627458 49.51084763 74.91322557 36.97265625 62.8671875 C34.93843364 60.87793483 34.93843364 60.87793483 32.24609375 58.8828125 C31.50488281 58.26148438 30.76367188 57.64015625 30 57 C30 56.34 30 55.68 30 55 C29.01 54.67 28.02 54.34 27 54 C27 53.34 27 52.68 27 52 C25.68 51.34 24.36 50.68 23 50 C23 49.34 23 48.68 23 48 C22.34 48 21.68 48 21 48 C21 47.34 21 46.68 21 46 C20.34 46 19.68 46 19 46 C16 42.53846154 16 42.53846154 16 40 C15.34 40 14.68 40 14 40 C7.96340883 33.71731279 3.3908085 26.15919425 -1.21484375 18.80859375 C-2.73423744 16.19327665 -2.73423744 16.19327665 -4 15 C-3.98827931 13.22724571 -3.89044143 11.45472136 -3.75 9.6875 C-3.64945312 8.23923828 -3.64945312 8.23923828 -3.546875 6.76171875 C-2.95165503 3.75585792 -2.00793426 2.27242022 0 0 Z " fill="#104C70" transform="translate(75,296)"/>
<path d="M0 0 C0.95603656 -0.00467997 1.91207312 -0.00935994 2.89708048 -0.01418173 C6.08514036 -0.02610148 9.27276798 -0.01668614 12.46083069 -0.00723267 C14.75279999 -0.01129972 17.04476732 -0.01664236 19.33673096 -0.02316284 C25.55158834 -0.03682692 31.76629614 -0.03154123 37.98115611 -0.02202559 C44.48989305 -0.01442343 50.99861729 -0.02147623 57.50735474 -0.02618408 C69.13808032 -0.03198976 80.76873773 -0.02267335 92.39945257 -0.00740607 C102.93296645 0.00599322 113.46638111 0.00367071 123.99989319 -0.01016235 C136.24656082 -0.02623779 148.49315784 -0.0321816 160.7398358 -0.02332556 C167.21727699 -0.01865316 173.69464993 -0.01801228 180.17208672 -0.02793503 C186.26326725 -0.0366144 192.35426084 -0.03056478 198.44542122 -0.01325226 C200.67826146 -0.00929247 202.9111175 -0.01041274 205.14395142 -0.01704025 C208.19717137 -0.02526581 211.24979624 -0.01492153 214.30297852 0 C215.62119257 -0.01003825 215.62119257 -0.01003825 216.96603721 -0.02027929 C223.23341745 0.03893 230.00380712 0.67366052 234.96923107 4.85993159 C236.21498108 6.38095093 236.21498108 6.38095093 236.21498108 8.38095093 C237.1373053 8.51050171 237.1373053 8.51050171 238.07826233 8.64266968 C240.21498108 9.38095093 240.21498108 9.38095093 241.44544983 11.08798218 C241.76127014 11.78278687 242.07709045 12.47759155 242.40248108 13.19345093 C242.72603577 13.88052124 243.04959045 14.56759155 243.38294983 15.27548218 C245.09289034 19.60251475 245.33884354 23.35064568 245.3352356 28.01211548 C245.33609161 28.67546906 245.33694763 29.33882263 245.33782959 30.02227783 C245.33948371 32.25026136 245.33396288 34.47816959 245.32850647 36.70614624 C245.32820013 38.32862724 245.32833364 39.95110838 245.32887173 41.57358932 C245.32909757 45.92014429 245.32329992 50.26667174 245.31626129 54.61322021 C245.31056815 58.6912342 245.31029827 62.76924149 245.30958557 66.84725952 C245.30433736 78.7751603 245.29037622 90.70305596 245.27748108 102.63095093 C245.25685608 129.27845093 245.23623108 155.92595093 245.21498108 183.38095093 C154.79498108 183.38095093 64.37498108 183.38095093 -28.78501892 183.38095093 C-28.86751892 156.50657593 -28.95001892 129.63220093 -29.03501892 101.94345093 C-29.07143494 93.46343384 -29.10785095 84.98341675 -29.14537048 76.24642944 C-29.16343689 65.87692261 -29.16343689 65.87692261 -29.16679382 61.01972961 C-29.17051464 57.63335143 -29.18548108 54.24722505 -29.20732117 50.86091614 C-29.23484742 46.53537168 -29.24296712 42.21019106 -29.23730803 37.88456714 C-29.2384906 36.30089113 -29.24636966 34.71720182 -29.26187944 33.13360131 C-29.35098012 23.58928521 -28.80271219 16.02485338 -23.14439392 8.07626343 C-22.61330017 7.5580603 -22.08220642 7.03985718 -21.53501892 6.50595093 C-21.01423767 5.97227905 -20.49345642 5.43860718 -19.95689392 4.88876343 C-13.66042523 0.51747402 -7.41543482 -0.05632583 0 0 Z M-3.78501892 18.38095093 C-3.78501892 19.04095093 -3.78501892 19.70095093 -3.78501892 20.38095093 C-4.77501892 20.71095093 -5.76501892 21.04095093 -6.78501892 21.38095093 C-11.95550701 28.3720006 -12.49977058 35.46190522 -12.4002533 43.87973022 C-12.40580231 45.08914276 -12.41135132 46.2985553 -12.41706848 47.5446167 C-12.42679308 50.83196279 -12.41437591 54.11825895 -12.39078331 57.4055059 C-12.37053319 60.86019147 -12.37656093 64.31484665 -12.37889099 67.76957703 C-12.37883759 73.56538729 -12.35918005 79.36086964 -12.32701111 85.15658569 C-12.29007341 91.84370251 -12.28134452 98.53039117 -12.28830862 105.21759671 C-12.29462593 111.67293773 -12.28384004 118.12813302 -12.26434326 124.5834446 C-12.25619917 127.32131856 -12.25345413 130.05911774 -12.2550354 132.79700279 C-12.25323594 136.62169036 -12.23184136 140.44577248 -12.2049408 144.27035522 C-12.2078714 145.39832016 -12.210802 146.5262851 -12.21382141 147.68843079 C-12.11539368 156.76771201 -10.41639971 162.74957014 -3.78501892 169.38095093 C1.72403167 173.02164838 6.55546108 173.95963081 13.06004333 173.86869812 C13.91484649 173.87282139 14.76964965 173.87694465 15.65035594 173.88119286 C18.49563545 173.89007579 21.339981 173.87051365 24.18519592 173.85092163 C26.23236706 173.85143073 28.27953839 173.85368836 30.32670593 173.8575592 C35.87177599 173.86296921 41.41651077 173.84359432 46.96152067 173.81945825 C52.76349561 173.79814536 58.56546955 173.79875649 64.36747742 173.79676819 C74.10365056 173.79032553 83.83969784 173.76909212 93.57582092 173.73764038 C106.08579503 173.69728201 118.5956873 173.67994233 131.10571861 173.670331 C141.85278405 173.66204099 152.59983206 173.64480435 163.34688234 173.62529349 C166.80701788 173.61922147 170.26715408 173.61408189 173.72729111 173.60894203 C179.15275361 173.60017893 184.57817529 173.58588958 190.00361252 173.56723213 C191.99912061 173.5610957 193.9946347 173.55665331 195.99015045 173.55398941 C198.70407976 173.55002522 201.41791581 173.53992426 204.13182068 173.52812195 C204.92985528 173.52830631 205.72788989 173.52849067 206.55010736 173.52868062 C210.51197057 173.58839139 210.51197057 173.58839139 214.21498108 172.38095093 C214.21498108 171.72095093 214.21498108 171.06095093 214.21498108 170.38095093 C215.29779358 170.04063843 215.29779358 170.04063843 216.40248108 169.69345093 C221.93729882 167.11053598 225.06220646 162.98745542 227.21498108 157.38095093 C227.65978494 153.34099269 227.63501355 149.32144966 227.61903381 145.26034546 C227.62589706 144.04336975 227.63276031 142.82639404 227.63983154 141.57254028 C227.6549676 138.24582856 227.65660147 134.91967858 227.65088916 131.59297419 C227.64779131 128.80984038 227.65389651 126.02675691 227.6599279 123.24363029 C227.6739601 116.67396384 227.67242339 110.10442745 227.661026 103.53475952 C227.64955172 96.7715925 227.66361146 90.00882235 227.69042248 83.24570763 C227.71262289 77.42637321 227.71920696 71.60716296 227.71334606 65.78778923 C227.70998491 62.31779149 227.71233473 58.84804797 227.72959709 55.37808609 C227.74802326 51.50534938 227.73383447 47.63309559 227.71669006 43.76034546 C227.72635803 42.62034088 227.736026 41.4803363 227.74598694 40.30578613 C227.67404677 32.53315416 226.65358595 26.80195202 220.92591858 21.10360718 C220.1550592 20.55575562 219.38419983 20.00790405 218.58998108 19.44345093 C217.81396545 18.87755249 217.03794983 18.31165405 216.23841858 17.72860718 C212.21459905 15.04865016 208.84111013 15.23539583 204.13182068 15.24050903 C203.28637746 15.23753791 202.44093425 15.23456679 201.56987154 15.23150563 C198.7202823 15.22279352 195.87073495 15.22130825 193.02113342 15.21981812 C190.98458262 15.21519161 188.94803268 15.21016718 186.91148376 15.20477295 C181.36578769 15.19162826 175.82010374 15.18519962 170.27439451 15.18076229 C166.81055379 15.17783407 163.3467164 15.17372968 159.88287735 15.16925812 C149.04823902 15.15557593 138.21360829 15.14591358 127.37896192 15.14205623 C114.86732215 15.13757764 102.35579175 15.12004199 89.84418523 15.09105563 C80.17785556 15.069438 70.51155664 15.05935185 60.84520304 15.05801511 C55.0702403 15.05696687 49.29538027 15.05105536 43.52044296 15.0331955 C38.08515938 15.01671415 32.65005568 15.01455971 27.21475601 15.0233345 C25.2217638 15.02410492 23.22876192 15.0197616 21.23579407 15.00987625 C18.51033026 14.99715276 15.78550309 15.00303586 13.06004333 15.01345825 C11.88306792 15.00137365 11.88306792 15.00137365 10.68231523 14.9890449 C5.2569716 15.03740823 1.20571005 16.24254875 -3.78501892 18.38095093 Z " fill="#FAFCFC" transform="translate(139.78501892089844,94.61904907226563)"/>
<path d="M0 0 C1.50784462 -0.00040453 1.50784462 -0.00040453 3.04615074 -0.00081724 C4.20614443 -0.01323928 5.36613811 -0.02566131 6.56128311 -0.03845978 C7.84161094 -0.02662405 9.12193877 -0.01478832 10.44106442 -0.00259393 C11.810246 -0.00763619 13.179421 -0.01486254 14.54858077 -0.02409208 C18.31962307 -0.04308786 22.09002029 -0.03074008 25.86104673 -0.01336914 C29.92453859 -0.00003672 33.98793346 -0.01541739 38.05141598 -0.0271911 C46.01543377 -0.04560355 53.97920678 -0.03703124 61.94321703 -0.01910288 C68.41433478 -0.00509589 74.88538592 -0.00117997 81.35651737 -0.00454515 C82.73630523 -0.00526132 82.73630523 -0.00526132 84.14396759 -0.00599195 C86.01246408 -0.00701825 87.88096055 -0.0080736 89.74945701 -0.00915771 C106.28485654 -0.01773219 122.82013766 -0.0010261 139.35550839 0.02867132 C155.41057202 0.05750585 171.46546503 0.06459546 187.52054745 0.04917914 C204.99036775 0.03242741 222.46010697 0.02837262 239.92992938 0.0458895 C241.79198417 0.04773394 243.65403898 0.04956867 245.51609379 0.05139357 C246.43233059 0.05230566 247.34856738 0.05321775 248.29256893 0.05415748 C254.75737404 0.05976964 261.22213966 0.05644933 267.68694264 0.04984862 C275.56340186 0.0421261 283.43969295 0.04882869 291.31611823 0.07402366 C295.33687268 0.08654452 299.35736503 0.09263417 303.37812954 0.08148199 C307.05643894 0.07147215 310.73422468 0.07982876 314.41247011 0.10306317 C316.37877365 0.11069996 318.34512292 0.09863737 320.31140041 0.08595943 C322.05530256 0.10253097 322.05530256 0.10253097 323.83443505 0.11943728 C324.83982714 0.12062876 325.84521924 0.12182024 326.88107777 0.12304783 C330.24810153 0.76835722 331.43435652 1.93620355 333.50321347 4.62559515 C334.48133097 10.93301464 334.77393397 18.38605885 331.50321347 24.06309515 C330.84321347 24.90872015 330.18321347 25.75434515 329.50321347 26.62559515 C328.84321347 26.62559515 328.18321347 26.62559515 327.50321347 26.62559515 C327.50321347 27.28559515 327.50321347 27.94559515 327.50321347 28.62559515 C325.85321347 28.95559515 324.20321347 29.28559515 322.50321347 29.62559515 C322.50321347 30.28559515 322.50321347 30.94559515 322.50321347 31.62559515 C282.65468866 31.71716165 242.80617757 31.78763945 202.95756856 31.82985647 C198.25248713 31.83485926 193.54740591 31.84003656 188.84232479 31.84532171 C187.43728643 31.84689558 187.43728643 31.84689558 186.00386345 31.84850124 C170.83944024 31.86590384 155.67507773 31.89744075 140.51069052 31.93420634 C124.94925008 31.97161976 109.38784141 31.99383186 93.82635784 32.00194913 C84.22499486 32.00743607 74.62380341 32.02476266 65.02249324 32.05726102 C58.43744693 32.07841385 51.85248923 32.08479345 45.26741142 32.07960066 C41.46880398 32.07704007 37.67049619 32.08094996 33.8719421 32.10241705 C29.74981887 32.12554214 25.62833189 32.11753505 21.50615841 32.10661322 C20.31061622 32.11826458 19.11507403 32.12991595 17.88330328 32.14192039 C11.07176444 32.09312292 5.30362324 31.44845626 -0.49678653 27.62559515 C-4.60846509 22.58878892 -5.65894042 18.64872029 -5.74678653 12.25059515 C-5.77256778 11.12911078 -5.79834903 10.0076264 -5.82491153 8.85215765 C-5.38691909 4.54523192 -4.52259895 1.13318297 0 0 Z " fill="#F8FAFB" transform="translate(83.49678653478622,280.3744048476219)"/>
<path d="M0 0 C0.80373047 -0.02900391 1.60746094 -0.05800781 2.43554688 -0.08789062 C7.89423182 -0.14591426 11.008194 0.64293037 15.3125 4.3125 C17.79636059 8.03829089 17.6929212 9.89961402 17.3125 14.3125 C15.77286426 17.53840345 13.95680181 19.92003646 11.3125 22.3125 C12.3025 22.3125 13.2925 22.3125 14.3125 22.3125 C14.3125 22.9725 14.3125 23.6325 14.3125 24.3125 C14.951875 24.580625 15.59125 24.84875 16.25 25.125 C18.3125 26.3125 18.3125 26.3125 19.3125 29.3125 C19.77595203 32.7552865 19.98189925 35.22881457 18.11328125 38.25390625 C15.04803575 41.95227551 12.20612979 44.97626718 7.22192383 45.55541992 C6.1317395 45.54925659 6.1317395 45.54925659 5.01953125 45.54296875 C3.8274707 45.54006836 3.8274707 45.54006836 2.61132812 45.53710938 C1.3805957 45.51874023 1.3805957 45.51874023 0.125 45.5 C-1.12313477 45.4990332 -1.12313477 45.4990332 -2.39648438 45.49804688 C-8.54706743 45.45293257 -8.54706743 45.45293257 -9.6875 44.3125 C-9.78535341 42.96705673 -9.81547985 41.61657437 -9.81689453 40.26757812 C-9.82004669 39.40998901 -9.82319885 38.5523999 -9.82644653 37.66882324 C-9.8244223 36.73654907 -9.82239807 35.8042749 -9.8203125 34.84375 C-9.82126923 33.89310669 -9.82222595 32.94246338 -9.82321167 31.9630127 C-9.82389357 29.94881118 -9.82203862 27.93460748 -9.81787109 25.92041016 C-9.81252298 22.82579645 -9.81781577 19.7313279 -9.82421875 16.63671875 C-9.82355797 14.68489551 -9.82227681 12.73307236 -9.8203125 10.78125 C-9.82233673 9.84897583 -9.82436096 8.91670166 -9.82644653 7.95617676 C-9.82329437 7.09858765 -9.82014221 6.24099854 -9.81689453 5.35742188 C-9.81609894 4.59876831 -9.81530334 3.84011475 -9.81448364 3.05847168 C-9.47759528 -1.57360167 -3.52293843 0.04138142 0 0 Z " fill="#18425A" transform="translate(248.6875,443.6875)"/>
<path d="M0 0 C2.8755137 2.8755137 2.95947998 5.00477866 3.12304783 9.02220535 C3.12212604 10.21316189 3.12120424 11.40411842 3.12025452 12.63116455 C3.12111053 13.29451813 3.12196655 13.9578717 3.12284851 14.6413269 C3.12450263 16.86931043 3.1189818 19.09721866 3.11352539 21.32519531 C3.11321905 22.94767632 3.11335256 24.57015745 3.11389065 26.1926384 C3.11411649 30.53919336 3.10831884 34.88572082 3.10128021 39.23226929 C3.09558707 43.31028328 3.09531719 47.38829056 3.09460449 51.46630859 C3.08935628 63.39420938 3.07539514 75.32210503 3.0625 87.25 C3.041875 113.8975 3.02125 140.545 3 168 C-87.42 168 -177.84 168 -271 168 C-271 113.88 -271 59.76 -271 4 C-270.67 4 -270.34 4 -270 4 C-270 57.46 -270 110.92 -270 166 C-180.57 166 -91.14 166 1 166 C0.505 83.83 0.505 83.83 0 0 Z " fill="#C2D0DC" transform="translate(382,110)"/>
<path d="M0 0 C0.33 -0.66 0.66 -1.32 1 -2 C2.65 -2 4.3 -2 6 -2 C6.07432418 3.03536777 6.12868401 8.07041408 6.16479492 13.10620117 C6.1798534 14.81817184 6.20030455 16.53010411 6.22631836 18.24194336 C6.2628319 20.70696505 6.27975562 23.17147535 6.29296875 25.63671875 C6.30845261 26.39836838 6.32393646 27.16001801 6.33988953 27.94474792 C6.34175626 33.87935635 4.85944215 36.90812758 1 41.25 C-2.42148098 44.24379586 -5.56345083 44.16046632 -9.9375 44.1875 C-10.97777344 44.20167969 -12.01804687 44.21585937 -13.08984375 44.23046875 C-15.95046613 44.00392282 -17.57670151 43.47733619 -20 42 C-19.67 40.68 -19.34 39.36 -19 38 C-17.95199219 38.04640625 -16.90398437 38.0928125 -15.82421875 38.140625 C-14.44534099 38.17814548 -13.06643242 38.21454536 -11.6875 38.25 C-10.65206055 38.30027344 -10.65206055 38.30027344 -9.59570312 38.3515625 C-5.44917291 38.44856569 -5.44917291 38.44856569 -2.09375 36.25 C-1.03068745 34.06312846 -0.32660811 32.12280666 0.1875 29.75 C0.455625 28.5125 0.72375 27.275 1 26 C0.01 26 -0.98 26 -2 26 C-2 26.66 -2 27.32 -2 28 C-5.67692458 30.35323173 -8.70514454 30.43676496 -13 30 C-17.75870327 28.19227905 -20.88844357 25.69234763 -23 21 C-24.88465399 16.03136677 -24.6339801 10.70173606 -22.8125 5.8125 C-20.50212385 2.22743356 -18.13435529 -1.07511271 -14.125 -2.8125 C-8.43101276 -3.31491064 -4.75928447 -3.4612978 0 0 Z " fill="#164563" transform="translate(453,459)"/>
<path d="M0 0 C4.94094101 3.61174538 8.49351788 7.90738592 10.35546875 13.7890625 C11.24742911 21.79596248 10.79314226 28.92431189 6.35546875 35.7890625 C3.85546875 38.6640625 3.85546875 38.6640625 1.35546875 40.7890625 C0.43507813 41.57216797 0.43507813 41.57216797 -0.50390625 42.37109375 C-4.71211368 45.15864721 -9.98775449 45.08374831 -14.8984375 44.5390625 C-20.89303404 43.26506855 -24.19068133 40.69983668 -27.83203125 35.9140625 C-31.76059591 29.14067516 -32.96864274 22.25947932 -31.109375 14.578125 C-28.97364966 8.48605599 -26.01305184 2.54982194 -20.02734375 -0.5078125 C-13.70617324 -2.37307593 -6.06263283 -2.7760948 0 0 Z M-22.7890625 9.4375 C-24.95546965 13.35071544 -25.20883037 16.43698936 -25.08203125 20.7890625 C-25.08912109 21.47484375 -25.09621094 22.160625 -25.10351562 22.8671875 C-25.04539025 27.55298683 -24.01069192 30.77223803 -21.64453125 34.7890625 C-20.98453125 34.7890625 -20.32453125 34.7890625 -19.64453125 34.7890625 C-19.31453125 35.7790625 -18.98453125 36.7690625 -18.64453125 37.7890625 C-14.5960724 40.48803506 -11.39494553 40.32526446 -6.64453125 39.7890625 C-2.49827504 38.03842099 -0.12889901 35.51561413 2.35546875 31.7890625 C4.09954567 25.08197474 5.08961664 16.57933361 2.15625 10.16796875 C-0.35997157 6.71370992 -2.63693198 4.40131508 -6.64453125 2.7890625 C-14.00820403 2.076449 -17.96923671 3.48514684 -22.7890625 9.4375 Z " fill="#144561" transform="translate(66.64453125,445.2109375)"/>
<path d="M0 0 C8.45767334 -0.02312659 16.91533356 -0.0409167 25.37303066 -0.05181217 C29.29988658 -0.05704031 33.22672094 -0.06413669 37.15356445 -0.07543945 C40.94014257 -0.0862708 44.7266999 -0.09227736 48.51329231 -0.09487724 C49.96104319 -0.09673105 51.40879288 -0.10035081 52.85653496 -0.10573006 C54.87757135 -0.11294367 56.89862848 -0.11340808 58.91967773 -0.11352539 C60.64842384 -0.11685631 60.64842384 -0.11685631 62.41209412 -0.12025452 C65 0 65 0 66 1 C66.23529412 6.52941176 66.23529412 6.52941176 65 9 C43.22 9 21.44 9 -1 9 C-1 2 -1 2 0 0 Z " fill="#1B5172" transform="translate(215,293)"/>
<path d="M0 0 C2.625 1.875 2.625 1.875 4 4 C4 4.99 4 5.98 4 7 C4.66 7 5.32 7 6 7 C6 10.3 6 13.6 6 17 C-1.59 17 -9.18 17 -17 17 C-14.96874476 22.9708878 -14.96874476 22.9708878 -11 27 C-7.56919882 27.36398618 -7.56919882 27.36398618 -3.8125 27.1875 C-2.54019531 27.16042969 -1.26789063 27.13335937 0.04296875 27.10546875 C1.01878906 27.07066406 1.99460938 27.03585937 3 27 C3.5625 28.9375 3.5625 28.9375 4 31 C1.43661012 33.56338988 -4.56053977 32.91542311 -8 33 C-13.06112313 32.1020588 -16.35518797 30.64481203 -20 27 C-22.7471227 22.92668014 -23.65707773 19.28640274 -23.4765625 14.4453125 C-22.5337495 9.60759987 -20.12751209 5.75162759 -17 2 C-11.58753768 -1.64300349 -6.17564152 -1.60029667 0 0 Z " fill="#1A4A69" transform="translate(211,457)"/>
<path d="M0 0 C2.28750959 3.35287773 2.23285351 6.31752813 2.1953125 10.296875 C2.18886719 11.50214844 2.18242187 12.70742188 2.17578125 13.94921875 C2.15902344 15.20347656 2.14226562 16.45773437 2.125 17.75 C2.11597656 19.01972656 2.10695313 20.28945313 2.09765625 21.59765625 C2.07409005 24.73196093 2.04118832 27.86588541 2 31 C0.68 31 -0.64 31 -2 31 C-2 30.01 -2 29.02 -2 28 C-5.18234105 29.75454385 -5.18234105 29.75454385 -8 32 C-9.92578125 32.16796875 -9.92578125 32.16796875 -12.3125 32.1875 C-13.48232422 32.20876953 -13.48232422 32.20876953 -14.67578125 32.23046875 C-17.24231056 31.97597257 -18.82482964 31.36848466 -21 30 C-22.98843702 26.02312597 -22.6720314 21.31220148 -22 17 C-19.73134937 13.69035462 -16.77829842 12.25943281 -13 11 C-11.27204648 10.93197033 -9.54164635 10.91504355 -7.8125 10.9375 C-6.91144531 10.94652344 -6.01039063 10.95554687 -5.08203125 10.96484375 C-4.39496094 10.97644531 -3.70789063 10.98804688 -3 11 C-3.96776098 7.20452079 -3.96776098 7.20452079 -6 4 C-8.35313555 3.92728259 -10.70833668 3.91629132 -13.0625 3.9375 C-14.35285156 3.94652344 -15.64320313 3.95554687 -16.97265625 3.96484375 C-17.97167969 3.97644531 -18.97070312 3.98804688 -20 4 C-19.67 2.35 -19.34 0.7 -19 -1 C-12.57054703 -2.21310433 -6.22450304 -2.31585046 0 0 Z " fill="#18445E" transform="translate(296,458)"/>
<path d="M0 0 C1.65 0 3.3 0 5 0 C6 1 6 1 6.11352539 3.59204102 C6.10828857 4.71795654 6.10305176 5.84387207 6.09765625 7.00390625 C6.09443359 8.21884766 6.09121094 9.43378906 6.08789062 10.68554688 C6.07951172 11.96494141 6.07113281 13.24433594 6.0625 14.5625 C6.05798828 15.84576172 6.05347656 17.12902344 6.04882812 18.45117188 C6.03699545 21.63416022 6.02051068 24.81705762 6 28 C8.87939205 25.19331987 11.49311085 22.42207727 13.875 19.1875 C16.37845148 16.17553494 16.69002714 16.03499694 20.875 15.5625 C21.90625 15.706875 22.9375 15.85125 24 16 C22.58226538 19.54433654 21.32387762 20.33806119 18 22 C16.81669817 23.86644906 16.81669817 23.86644906 16 26 C15.33921346 27.33625722 14.67333602 28.67002225 14 30 C15.24846488 31.73027536 16.49884402 33.45916957 17.75 35.1875 C18.79414063 36.63189453 18.79414063 36.63189453 19.859375 38.10546875 C21.2768086 40.02210798 22.74598933 41.90161814 24.265625 43.73828125 C26 46 26 46 26 48 C20.63758833 48.51252722 20.63758833 48.51252722 17.76953125 46.20703125 C17.12371094 45.41683594 16.47789062 44.62664062 15.8125 43.8125 C15.15894531 43.03519531 14.50539063 42.25789063 13.83203125 41.45703125 C12 39 12 39 10.38671875 36.19921875 C9.92910156 35.47347656 9.47148437 34.74773437 9 34 C8.34 34 7.68 34 7 34 C6.93941406 34.92683594 6.87882812 35.85367188 6.81640625 36.80859375 C6.69072266 38.60490234 6.69072266 38.60490234 6.5625 40.4375 C6.48128906 41.63246094 6.40007812 42.82742188 6.31640625 44.05859375 C6 47 6 47 5 48 C3.35 48 1.7 48 0 48 C0 32.16 0 16.32 0 0 Z " fill="#164663" transform="translate(346,441)"/>
<path d="M0 0 C2.88604761 2.18515034 3.85886912 4.61716888 5 8 C5.22705078 10.77075195 5.22705078 10.77075195 5.1953125 13.73828125 C5.18886719 14.80498047 5.18242187 15.87167969 5.17578125 16.97070312 C5.15902344 18.07349609 5.14226562 19.17628906 5.125 20.3125 C5.11597656 21.43462891 5.10695313 22.55675781 5.09765625 23.71289062 C5.07414486 26.47547909 5.04128155 29.23762932 5 32 C3.02 32 1.04 32 -1 32 C-1.01401855 30.9330188 -1.01401855 30.9330188 -1.02832031 29.84448242 C-1.08196888 26.6247794 -1.16562635 23.40653817 -1.25 20.1875 C-1.26417969 19.06794922 -1.27835937 17.94839844 -1.29296875 16.79492188 C-1.32519531 15.72177734 -1.35742188 14.64863281 -1.390625 13.54296875 C-1.41157227 12.55321045 -1.43251953 11.56345215 -1.45410156 10.54370117 C-1.78807057 7.88759274 -1.78807057 7.88759274 -3.81152344 6.1418457 C-7.10511422 4.42340259 -9.47682213 5.15182755 -13 6 C-16.09762996 9.09762996 -16.11565718 12.30246601 -16.31640625 16.546875 C-16.35830078 17.39121094 -16.40019531 18.23554688 -16.44335938 19.10546875 C-16.48267578 19.97816406 -16.52199219 20.85085938 -16.5625 21.75 C-16.62727539 23.08224609 -16.62727539 23.08224609 -16.69335938 24.44140625 C-16.79913615 26.62745963 -16.90122546 28.81362089 -17 31 C-18.65614657 31.38218767 -20.32457024 31.71395102 -22 32 C-23 31 -23 31 -23.11352539 28.04077148 C-23.10828857 26.74727783 -23.10305176 25.45378418 -23.09765625 24.12109375 C-23.0962413 23.4344313 -23.09482635 22.74776886 -23.09336853 22.04029846 C-23.08775479 19.83932199 -23.07520007 17.63844591 -23.0625 15.4375 C-23.05748676 13.94856917 -23.05292355 12.45963676 -23.04882812 10.97070312 C-23.03778093 7.31376925 -23.02050713 3.65689442 -23 0 C-21.02 0 -19.04 0 -17 0 C-16.67 0.66 -16.34 1.32 -16 2 C-15.030625 1.484375 -14.06125 0.96875 -13.0625 0.4375 C-8.70373031 -1.43561691 -4.52553146 -1.38572475 0 0 Z " fill="#164764" transform="translate(417,457)"/>
<path d="M0 0 C0.639375 0.03222656 1.27875 0.06445312 1.9375 0.09765625 C5.43357033 1.52124549 7.41672835 3.59955169 9 6.9375 C9.62844689 11.22631573 9.51709168 15.42600333 9.375 19.75 C9.35373047 21.48540039 9.35373047 21.48540039 9.33203125 23.25585938 C9.18230723 31.75519277 9.18230723 31.75519277 8 32.9375 C6.33382885 32.97813832 4.66611905 32.980221 3 32.9375 C2.98598145 31.8705188 2.98598145 31.8705188 2.97167969 30.78198242 C2.91803112 27.5622794 2.83437365 24.34403817 2.75 21.125 C2.73582031 20.00544922 2.72164062 18.88589844 2.70703125 17.73242188 C2.67480469 16.65927734 2.64257812 15.58613281 2.609375 14.48046875 C2.58842773 13.49071045 2.56748047 12.50095215 2.54589844 11.48120117 C2.21259189 8.82445821 2.21259189 8.82445821 0.18457031 7.08325195 C-3.13900199 5.34012223 -5.44653475 6.03298157 -9 6.9375 C-11.3320821 8.63082234 -11.92721316 9.52473984 -12.43237305 12.3894043 C-12.45855713 13.33726807 -12.48474121 14.28513184 -12.51171875 15.26171875 C-12.54716797 16.28974609 -12.58261719 17.31777344 -12.61914062 18.37695312 C-12.64169922 19.44880859 -12.66425781 20.52066406 -12.6875 21.625 C-12.72166016 22.70845703 -12.75582031 23.79191406 -12.79101562 24.90820312 C-12.8735456 27.5845322 -12.94267937 30.26053159 -13 32.9375 C-14.66611905 32.980221 -16.33382885 32.97813832 -18 32.9375 C-19 31.9375 -19 31.9375 -19.11352539 28.97827148 C-19.10828857 27.68477783 -19.10305176 26.39128418 -19.09765625 25.05859375 C-19.0962413 24.3719313 -19.09482635 23.68526886 -19.09336853 22.97779846 C-19.08775479 20.77682199 -19.07520007 18.57594591 -19.0625 16.375 C-19.05748676 14.88606917 -19.05292355 13.39713676 -19.04882812 11.90820312 C-19.03778093 8.25126925 -19.02050713 4.59439442 -19 0.9375 C-16.625 0.8125 -16.625 0.8125 -14 0.9375 C-13.34 1.5975 -12.68 2.2575 -12 2.9375 C-11.01 2.2775 -10.02 1.6175 -9 0.9375 C-5.96947981 -0.0149492 -3.14910688 -0.1660546 0 0 Z " fill="#1B435D" transform="translate(172,456.0625)"/>
<path d="M0 0 C3.3180463 3.07526242 4.90157055 5.87413546 5.11352539 10.4519043 C5.10828857 11.39976807 5.10305176 12.34763184 5.09765625 13.32421875 C5.09443359 14.35224609 5.09121094 15.38027344 5.08789062 16.43945312 C5.07951172 17.51130859 5.07113281 18.58316406 5.0625 19.6875 C5.05798828 20.77095703 5.05347656 21.85441406 5.04882812 22.97070312 C5.03703743 25.64719085 5.02058063 28.32356777 5 31 C3.34385343 31.38218767 1.67542976 31.71395102 0 32 C-1.59905137 30.40094863 -1.18372834 28.66224586 -1.24609375 26.44921875 C-1.27896484 25.52302734 -1.31183594 24.59683594 -1.34570312 23.64257812 C-1.40653369 21.68435152 -1.46386854 19.72601297 -1.51757812 17.76757812 C-1.55173828 16.83751953 -1.58589844 15.90746094 -1.62109375 14.94921875 C-1.6461499 14.09674561 -1.67120605 13.24427246 -1.69702148 12.3659668 C-2.02748085 9.78540136 -2.53650913 8.15144895 -4 6 C-7.46821241 5.10083382 -9.92654257 4.66101344 -13.375 5.75 C-15.309697 6.99718822 -15.309697 6.99718822 -16 10 C-16.1357708 11.61420283 -16.22407323 13.23266927 -16.28125 14.8515625 C-16.31863281 15.78484375 -16.35601562 16.718125 -16.39453125 17.6796875 C-16.46512315 19.65103168 -16.53543345 21.62238597 -16.60546875 23.59375 C-16.64285156 24.52445312 -16.68023437 25.45515625 -16.71875 26.4140625 C-16.74904297 27.2695166 -16.77933594 28.1249707 -16.81054688 29.00634766 C-17 31 -17 31 -18 32 C-19.65 32 -21.3 32 -23 32 C-23 21.44 -23 10.88 -23 0 C-21.35 0 -19.7 0 -18 0 C-18 0.99 -18 1.98 -18 3 C-16.88625 2.319375 -15.7725 1.63875 -14.625 0.9375 C-9.67746906 -1.52746203 -5.27043239 -1.63243481 0 0 Z " fill="#134C6F" transform="translate(331,457)"/>
<path d="M0 0 C4.17870577 4.1845583 5.30804462 7.03072817 5.48828125 12.93359375 C5.45532517 15.10210375 5.3960992 17.27035144 5.3125 19.4375 C5.28994141 20.55060547 5.26738281 21.66371094 5.24414062 22.81054688 C5.18553062 25.54177295 5.10353541 28.27016953 5 31 C3.34385343 31.38218767 1.67542976 31.71395102 0 32 C-1.66992 30.33008 -1.1680717 28.26889989 -1.2109375 25.9765625 C-1.23929688 24.955625 -1.26765625 23.9346875 -1.296875 22.8828125 C-1.34876692 20.71891933 -1.39309465 18.55483095 -1.4296875 16.390625 C-1.460625 15.36710937 -1.4915625 14.34359375 -1.5234375 13.2890625 C-1.54325684 12.34756348 -1.56307617 11.40606445 -1.58349609 10.43603516 C-2.06946375 7.59372257 -2.67527698 6.66581127 -5 5 C-8.54294857 4.69847246 -11.60444966 4.95521528 -15 6 C-16.07624414 11.44452918 -16.32192966 16.84582589 -16.5625 22.375 C-16.60568359 23.30183594 -16.64886719 24.22867187 -16.69335938 25.18359375 C-16.79876186 27.45560294 -16.90088606 29.72770925 -17 32 C-18.65 32 -20.3 32 -22 32 C-22 21.44 -22 10.88 -22 0 C-20.35 0 -18.7 0 -17 0 C-16.67 0.66 -16.34 1.32 -16 2 C-15.21625 1.484375 -14.4325 0.96875 -13.625 0.4375 C-9.00073032 -1.39626212 -4.68784207 -1.9167405 0 0 Z " fill="#174560" transform="translate(107,457)"/>
<path d="M0 0 C4.49694501 1.95519348 4.49694501 1.95519348 5.8125 4.6875 C6.28874996 10.56124956 6.52935872 15.56187875 4 21 C1.58444025 23.68395527 0.16968297 23.97531884 -3.4375 24.5 C-7 24 -7 24 -9.9375 22.375 C-13.28753584 16.89312317 -12.91629159 11.24270203 -12 5 C-8.84426225 -0.16393449 -5.87188021 -0.83884003 0 0 Z " fill="#010202" transform="translate(448,461)"/>
<path d="M0 0 C1.65 0 3.3 0 5 0 C6.57300328 1.57300328 6.12725504 3.13684045 6.12939453 5.3203125 C6.13254669 6.23796387 6.13569885 7.15561523 6.13894653 8.10107422 C6.1369223 9.09896973 6.13489807 10.09686523 6.1328125 11.125 C6.13376923 12.14223145 6.13472595 13.15946289 6.13571167 14.20751953 C6.13639361 16.36295636 6.13453835 18.51839522 6.13037109 20.67382812 C6.12502305 23.98572371 6.13031563 27.29748367 6.13671875 30.609375 C6.13605797 32.69791697 6.13477681 34.78645885 6.1328125 36.875 C6.13483673 37.87289551 6.13686096 38.87079102 6.13894653 39.89892578 C6.13579437 40.81657715 6.13264221 41.73422852 6.12939453 42.6796875 C6.12859894 43.49163574 6.12780334 44.30358398 6.12698364 45.14013672 C6 47 6 47 5 48 C3.35 48 1.7 48 0 48 C0 32.16 0 16.32 0 0 Z " fill="#174865" transform="translate(122,441)"/>
<path d="M0 0 C1.5 1.375 1.5 1.375 3 3 C3 3.66 3 4.32 3 5 C7.62 4.67 12.24 4.34 17 4 C17.33 4.66 17.66 5.32 18 6 C18.99 6.33 19.98 6.66 21 7 C21 7.66 21 8.32 21 9 C21.639375 9.268125 22.27875 9.53625 22.9375 9.8125 C25 11 25 11 26 14 C26.46359013 17.44381238 26.60347505 19.92460329 24.87109375 23.01171875 C22.25061502 26.38481539 20.97234733 27.87395498 16.625 28.4375 C15.325625 28.2209375 15.325625 28.2209375 14 28 C14.99811158 25.77344339 15.70600576 24.23745688 17.625 22.6875 C19.33193533 20.90591997 19.33193533 20.90591997 19.375 17.5 C19.28595884 14.16565213 19.28595884 14.16565213 17.92578125 12.35546875 C15.04578203 10.32836991 12.27913535 10.22595192 8.8125 9.8125 C6.564375 9.544375 4.31625 9.27625 2 9 C2 13.62 2 18.24 2 23 C1.34 23 0.68 23 0 23 C0.33 24.32 0.66 25.64 1 27 C0.34 27 -0.32 27 -1 27 C-1.81862159 23.4201548 -2.13520898 20.10762899 -2.125 16.4375 C-2.12757813 15.50808594 -2.13015625 14.57867187 -2.1328125 13.62109375 C-2.01206652 11.2381363 -1.6362382 9.28574465 -1 7 C-0.6503582 4.66905466 -0.31445513 2.33595238 0 0 Z " fill="#164666" transform="translate(242,459)"/>
<path d="M0 0 C6.16830095 -0.18412839 10.5295716 -0.27372895 15.8125 3.1875 C17.76356067 6.16543471 17.42391943 8.54808463 17 12 C14.64677763 15.19365893 12.82005826 16.28719927 9 17 C7.41788427 17.06548492 5.83329919 17.08578381 4.25 17.0625 C2.14625 17.0315625 2.14625 17.0315625 0 17 C0 11.39 0 5.78 0 0 Z " fill="#010203" transform="translate(245,468)"/>
<path d="M0 0 C0.33 -0.66 0.66 -1.32 1 -2 C2.65 -2 4.3 -2 6 -2 C6.07432418 3.03536777 6.12868401 8.07041408 6.16479492 13.10620117 C6.1798534 14.81817184 6.20030455 16.53010411 6.22631836 18.24194336 C6.2628319 20.70696505 6.27975562 23.17147535 6.29296875 25.63671875 C6.30845261 26.39836838 6.32393646 27.16001801 6.33988953 27.94474792 C6.34175626 33.87935635 4.85944215 36.90812758 1 41.25 C-2.42148098 44.24379586 -5.56345083 44.16046632 -9.9375 44.1875 C-10.97777344 44.20167969 -12.01804687 44.21585937 -13.08984375 44.23046875 C-15.95046613 44.00392282 -17.57670151 43.47733619 -20 42 C-19.67 40.68 -19.34 39.36 -19 38 C-17.95199219 38.04640625 -16.90398437 38.0928125 -15.82421875 38.140625 C-14.44534099 38.17814548 -13.06643242 38.21454536 -11.6875 38.25 C-10.65206055 38.30027344 -10.65206055 38.30027344 -9.59570312 38.3515625 C-7.31006278 38.43881264 -7.31006278 38.43881264 -4 38 C-2.01371644 36.241912 -2.01371644 36.241912 -1 34 C-0.608125 33.2575 -0.21625 32.515 0.1875 31.75 C0.455625 31.1725 0.72375 30.595 1 30 C1 31.32 1 32.64 1 34 C2.485 33.505 2.485 33.505 4 33 C3.99214478 31.6682373 3.99214478 31.6682373 3.98413086 30.30957031 C3.96706132 27.00715482 3.95453637 23.70478641 3.94506836 20.40234375 C3.94004794 18.97460184 3.93323028 17.54686504 3.92456055 16.11914062 C3.91239447 14.06378921 3.90674872 12.00850593 3.90234375 9.953125 C3.89448853 8.09929199 3.89448853 8.09929199 3.88647461 6.20800781 C3.97928263 3.5854329 4.21643327 1.48355406 5 -1 C4.01 -1 3.02 -1 2 -1 C2 -0.01 2 0.98 2 2 C1.01 2 0.02 2 -1 2 C-1 2.66 -1 3.32 -1 4 C-4.3 3.34 -7.6 2.68 -11 2 C-11 1.01 -11 0.02 -11 -1 C-12.98 -0.67 -14.96 -0.34 -17 0 C-16 -2 -16 -2 -14.375 -2.625 C-8.65565679 -3.52805419 -4.77350386 -3.47163917 0 0 Z " fill="#154663" transform="translate(453,459)"/>
<path d="M0 0 C1.98 0 3.96 0 6 0 C6 10.56 6 21.12 6 32 C4.02 32 2.04 32 0 32 C-1.88319268 30.11680732 -1.13054285 26.88069863 -1.1328125 24.375 C-1.13376923 23.71290527 -1.13472595 23.05081055 -1.13571167 22.36865234 C-1.13639326 20.96647039 -1.13454042 19.5642853 -1.13037109 18.16210938 C-1.12502246 16.00904287 -1.1303167 13.85618498 -1.13671875 11.703125 C-1.13605796 10.34374954 -1.13477679 8.9843742 -1.1328125 7.625 C-1.13168457 6.37976563 -1.13055664 5.13453125 -1.12939453 3.8515625 C-1 1 -1 1 0 0 Z " fill="#124D70" transform="translate(138,457)"/>
<path d="M0 0 C1.09633373 26.18954668 1.09633373 26.18954668 1.125 37.625 C1.12951172 38.36927246 1.13402344 39.11354492 1.13867188 39.88037109 C1.12427951 44.87572049 1.12427951 44.87572049 0 46 C-1.66617115 46.04063832 -3.33388095 46.042721 -5 46 C-5.12067956 30.96147021 -4.9392609 16.01140186 -4 1 C-1 0 -1 0 0 0 Z " fill="#144867" transform="translate(351,443)"/>
<path d="M0 0 C4.61378902 0.23068945 7.46554117 0.90304117 10.75 4.1875 C11.36237984 8.12422752 11.05777434 9.73080259 8.8125 13.0625 C4.7063259 15.91168203 1.59435994 15.66243725 -3.25 15.1875 C-4.62252731 12.44244537 -4.38229255 10.18422588 -4.375 7.125 C-4.37757813 6.04089844 -4.38015625 4.95679688 -4.3828125 3.83984375 C-4.1876702 -0.05726275 -3.98435017 0.22986636 0 0 Z " fill="#010202" transform="translate(249.25,447.8125)"/>
<path d="M0 0 C1.98 0 3.96 0 6 0 C6.02465504 4.39656173 6.04283842 8.7930872 6.05493164 13.18969727 C6.05997121 14.68644918 6.06680287 16.18319616 6.07543945 17.67993164 C6.08752159 19.82699807 6.09323191 21.97399962 6.09765625 24.12109375 C6.10289307 25.4145874 6.10812988 26.70808105 6.11352539 28.04077148 C6 31 6 31 5 32 C3.35 32 1.7 32 0 32 C0 21.44 0 10.88 0 0 Z " fill="#194967" transform="translate(379,457)"/>
<path d="M0 0 C0.99 0 1.98 0 3 0 C3.04936883 4.80548597 3.08570443 9.61082494 3.10986328 14.41650391 C3.11993254 16.05194672 3.13358881 17.68737149 3.15087891 19.32275391 C3.17508705 21.6709437 3.18647357 24.01889588 3.1953125 26.3671875 C3.20563507 27.10057343 3.21595764 27.83395935 3.22659302 28.58956909 C3.22699368 30.39462697 3.12212755 32.1990783 3 34 C2.34 34.66 1.68 35.32 1 36 C0.34 35.67 -0.32 35.34 -1 35 C-1 32.36 -1 29.72 -1 27 C-1.66 27 -2.32 27 -3 27 C-2.91621094 25.85402344 -2.83242188 24.70804687 -2.74609375 23.52734375 C-2.64284747 21.99742154 -2.54000433 20.4674721 -2.4375 18.9375 C-2.38142578 18.18533203 -2.32535156 17.43316406 -2.26757812 16.65820312 C-1.95999383 11.92140498 -2.16192827 7.67457788 -3 3 C-2.01 3 -1.02 3 0 3 C0 2.01 0 1.02 0 0 Z " fill="#134B6D" transform="translate(455,458)"/>
<path d="M0 0 C1.32 0 2.64 0 4 0 C4 1.65 4 3.3 4 5 C4.66 5 5.32 5 6 5 C5.67 13.91 5.34 22.82 5 32 C3.35 32 1.7 32 0 32 C0 21.44 0 10.88 0 0 Z " fill="#164D6F" transform="translate(85,457)"/>
<path d="M0 0 C0.99 0 1.98 0 3 0 C5.3815055 6.40824952 5.04446534 12.17991339 4.625 18.9375 C4.56828125 20.00291016 4.5115625 21.06832031 4.453125 22.16601562 C4.31256374 24.77811235 4.16124852 27.38911245 4 30 C2.35 30 0.7 30 -1 30 C-1.02902996 25.75001434 -1.04680887 21.50005419 -1.0625 17.25 C-1.07087891 16.0434375 -1.07925781 14.836875 -1.08789062 13.59375 C-1.09111328 12.43359375 -1.09433594 11.2734375 -1.09765625 10.078125 C-1.10289307 9.00981445 -1.10812988 7.94150391 -1.11352539 6.84082031 C-1.01503008 4.37610765 -0.71565464 2.34754533 0 0 Z " fill="#154B6E" transform="translate(155,459)"/>
<path d="M0 0 C0.21179783 3.60056319 0.16361343 6.48734458 -0.9375 9.9375 C-3.42235556 12.42235556 -4.21464648 12.32620321 -7.625 12.375 C-11.80067568 12.19932432 -11.80067568 12.19932432 -13 11 C-13.27314815 5.26388889 -13.27314815 5.26388889 -13 3 C-9.25711729 -0.74288271 -5.09766283 -0.09803198 0 0 Z " fill="#020203" transform="translate(293,473)"/>
<path d="M0 0 C1.20462891 -0.02126953 1.20462891 -0.02126953 2.43359375 -0.04296875 C4.5625 0.1875 4.5625 0.1875 6.5625 2.1875 C6.6875 5.8125 6.6875 5.8125 6.5625 9.1875 C5.5725 9.5175 4.5825 9.8475 3.5625 10.1875 C3.5625 10.8475 3.5625 11.5075 3.5625 12.1875 C-2.8208448 12.66926187 -2.8208448 12.66926187 -5.4375 10.625 C-6.84413962 7.19631592 -6.24287401 4.74456853 -5.4375 1.1875 C-3.84855928 -0.40144072 -2.18948576 0.01751589 0 0 Z " fill="#36627D" transform="translate(379.4375,291.8125)"/>
<path d="M0 0 C1.5 1.375 1.5 1.375 3 3 C3 3.66 3 4.32 3 5 C7.62 4.67 12.24 4.34 17 4 C17.33 5.32 17.66 6.64 18 8 C13.05 8.33 8.1 8.66 3 9 C2.67 13.62 2.34 18.24 2 23 C1.34 23 0.68 23 0 23 C0.33 24.32 0.66 25.64 1 27 C0.34 27 -0.32 27 -1 27 C-1.81862159 23.4201548 -2.13520898 20.10762899 -2.125 16.4375 C-2.12757813 15.50808594 -2.13015625 14.57867187 -2.1328125 13.62109375 C-2.01206652 11.2381363 -1.6362382 9.28574465 -1 7 C-0.6503582 4.66905466 -0.31445513 2.33595238 0 0 Z " fill="#124D71" transform="translate(242,459)"/>
<path d="M0 0 C0.66 0 1.32 0 2 0 C2.68359375 1.72526042 3.3671875 3.45052083 4.05078125 5.17578125 C5.19997789 7.38431964 5.93571092 8.56549403 8 10 C11.43080118 10.36398618 11.43080118 10.36398618 15.1875 10.1875 C16.45980469 10.16042969 17.73210937 10.13335937 19.04296875 10.10546875 C20.01878906 10.07066406 20.99460938 10.03585937 22 10 C22.5625 11.9375 22.5625 11.9375 23 14 C20.43661012 16.56338988 14.43946023 15.91542311 11 16 C5.96242806 15.10623724 2.63503069 13.63503069 -1 10 C-1.8125 7.75 -1.8125 7.75 -2 6 C-1.34 6 -0.68 6 0 6 C0.33 6.66 0.66 7.32 1 8 C0.67 5.36 0.34 2.72 0 0 Z " fill="#164664" transform="translate(192,474)"/>
<path d="M0 0 C0.7734375 -0.01675781 1.546875 -0.03351563 2.34375 -0.05078125 C4.5 0.3125 4.5 0.3125 6.28125 1.45703125 C7.5 3.3125 7.5 3.3125 7.5 9.3125 C2.22 9.3125 -3.06 9.3125 -8.5 9.3125 C-8.17 7.0025 -7.84 4.6925 -7.5 2.3125 C-4.40219052 0.24729368 -3.5459519 0.01772976 0 0 Z " fill="#010102" transform="translate(203.5,460.6875)"/>
<path d="M0 0 C-1.98 0.99 -1.98 0.99 -4 2 C-2.35 2.33 -0.7 2.66 1 3 C1 3.66 1 4.32 1 5 C-0.98567708 5.22786458 -2.97135417 5.45572917 -4.95703125 5.68359375 C-7.19396393 5.97170735 -7.19396393 5.97170735 -10 7 C-10.33 9.31 -10.66 11.62 -11 14 C-11.66 14 -12.32 14 -13 14 C-13 13.34 -13 12.68 -13 12 C-13.99 12.495 -13.99 12.495 -15 13 C-15.4683265 15.58605332 -15.4683265 15.58605332 -15.625 18.5625 C-15.69976562 19.57441406 -15.77453125 20.58632813 -15.8515625 21.62890625 C-15.90054688 22.41136719 -15.94953125 23.19382812 -16 24 C-18.30237735 21.69762265 -18.36549897 21.13835735 -18.5 18 C-18.35503711 12.02752884 -15.80362255 7.50428986 -12 3 C-8.35029913 0.34276165 -4.48297142 -0.40754286 0 0 Z " fill="#183D54" transform="translate(206,456)"/>
<path d="M0 0 C2.39485693 3.5922854 2.17558429 4.96005459 1.9765625 9.19921875 C1.89921875 11.01196289 1.89921875 11.01196289 1.8203125 12.86132812 C1.75585938 14.12396484 1.69140625 15.38660156 1.625 16.6875 C1.56828125 17.96173828 1.5115625 19.23597656 1.453125 20.54882812 C1.31150935 23.69977629 1.16008115 26.84994472 1 30 C2.32 30 3.64 30 5 30 C5 20.1 5 10.2 5 0 C5.33 0 5.66 0 6 0 C6 10.56 6 21.12 6 32 C4.02 32 2.04 32 0 32 C-1.88319268 30.11680732 -1.13054285 26.88069863 -1.1328125 24.375 C-1.13376923 23.71290527 -1.13472595 23.05081055 -1.13571167 22.36865234 C-1.13639326 20.96647039 -1.13454042 19.5642853 -1.13037109 18.16210938 C-1.12502246 16.00904287 -1.1303167 13.85618498 -1.13671875 11.703125 C-1.13605796 10.34374954 -1.13477679 8.9843742 -1.1328125 7.625 C-1.13168457 6.37976563 -1.13055664 5.13453125 -1.12939453 3.8515625 C-1 1 -1 1 0 0 Z " fill="#1C3646" transform="translate(138,457)"/>
<path d="M0 0 C2 2 2 2 2.22705078 4.33837891 C2.21657715 5.29147949 2.20610352 6.24458008 2.1953125 7.2265625 C2.18886719 8.2578125 2.18242187 9.2890625 2.17578125 10.3515625 C2.15902344 11.43179687 2.14226562 12.51203125 2.125 13.625 C2.11597656 14.71296875 2.10695313 15.8009375 2.09765625 16.921875 C2.07403409 19.61480152 2.04109556 22.30729255 2 25 C1.01 25 0.02 25 -1 25 C-3.50795008 21.23807488 -3.23628327 19.17112569 -3.1875 14.6875 C-3.18105469 13.39199219 -3.17460937 12.09648437 -3.16796875 10.76171875 C-3.01765891 7.39547745 -2.77853585 4.27778471 -2 1 C-1.34 0.67 -0.68 0.34 0 0 Z " fill="#134E71" transform="translate(295,462)"/>
<path d="M0 0 C0.33 0 0.66 0 1 0 C1.33 2.64 1.66 5.28 2 8 C4.97 8.33 7.94 8.66 11 9 C11.33 8.01 11.66 7.02 12 6 C12.99 7.32 13.98 8.64 15 10 C14.195625 10.474375 13.39125 10.94875 12.5625 11.4375 C10.15246512 12.76900154 10.15246512 12.76900154 9 14 C7.07421875 14.16796875 7.07421875 14.16796875 4.6875 14.1875 C3.90761719 14.20167969 3.12773437 14.21585937 2.32421875 14.23046875 C-0.24368785 13.975836 -1.83219675 13.38565598 -4 12 C-4.75 9.875 -4.75 9.875 -5 8 C-3.68 8.33 -2.36 8.66 -1 9 C-1.020625 7.700625 -1.04125 6.40125 -1.0625 5.0625 C-1.08399454 3.70834367 -1.07148199 2.35243917 -1 1 C-0.67 0.67 -0.34 0.34 0 0 Z " fill="#18394E" transform="translate(279,476)"/>
<path d="M0 0 C1.485 0.99 1.485 0.99 3 2 C3.34057617 4.43017578 3.34057617 4.43017578 3.29296875 7.4453125 C3.28330078 8.52167969 3.27363281 9.59804688 3.26367188 10.70703125 C3.23853516 11.83496094 3.21339844 12.96289062 3.1875 14.125 C3.17396484 15.26066406 3.16042969 16.39632813 3.14648438 17.56640625 C3.11104319 20.37807387 3.06163517 23.18880417 3 26 C1.68 25.67 0.36 25.34 -1 25 C-1.02900455 21.3958502 -1.04680018 17.79173038 -1.0625 14.1875 C-1.07087891 13.16333984 -1.07925781 12.13917969 -1.08789062 11.08398438 C-1.09111328 10.10107422 -1.09433594 9.11816406 -1.09765625 8.10546875 C-1.10289307 7.19949951 -1.10812988 6.29353027 -1.11352539 5.36010742 C-1 3 -1 3 0 0 Z " fill="#134C6C" transform="translate(177,463)"/>
<path d="M0 0 C0.66 0 1.32 0 2 0 C2 0.66 2 1.32 2 2 C3.26457031 2.04898437 4.52914062 2.09796875 5.83203125 2.1484375 C7.49220947 2.2234738 9.15236464 2.29902127 10.8125 2.375 C12.06256836 2.42140625 12.06256836 2.42140625 13.33789062 2.46875 C14.14033203 2.50742187 14.94277344 2.54609375 15.76953125 2.5859375 C16.87711792 2.63306885 16.87711792 2.63306885 18.00708008 2.68115234 C20 3 20 3 23 5 C12.11 5.495 12.11 5.495 1 6 C1.66 7.32 2.32 8.64 3 10 C2.625 12.75 2.625 12.75 2 15 C1.67 14.01 1.34 13.02 1 12 C0.34 12 -0.32 12 -1 12 C-1.02687279 10.18757948 -1.04633715 8.37504767 -1.0625 6.5625 C-1.07410156 5.55316406 -1.08570313 4.54382813 -1.09765625 3.50390625 C-1 1 -1 1 0 0 Z " fill="#104D70" transform="translate(191,468)"/>
<path d="M0 0 C2 2 2 2 2.22705078 4.06298828 C2.21657715 4.89040527 2.20610352 5.71782227 2.1953125 6.5703125 C2.18886719 7.46621094 2.18242187 8.36210937 2.17578125 9.28515625 C2.15902344 10.22230469 2.14226562 11.15945313 2.125 12.125 C2.11597656 13.06988281 2.10695313 14.01476562 2.09765625 14.98828125 C2.07404522 17.32577292 2.04111516 19.66276123 2 22 C0.68 21.67 -0.64 21.34 -2 21 C-2.05791844 17.87507749 -2.09356746 14.75029234 -2.125 11.625 C-2.14175781 10.73554688 -2.15851563 9.84609375 -2.17578125 8.9296875 C-2.18222656 8.07890625 -2.18867188 7.228125 -2.1953125 6.3515625 C-2.20578613 5.56604004 -2.21625977 4.78051758 -2.22705078 3.97119141 C-2 2 -2 2 0 0 Z " fill="#114C6E" transform="translate(311,465)"/>
<path d="M0 0 C1.65 0 3.3 0 5 0 C5.66 0.66 6.32 1.32 7 2 C7.99 1.34 8.98 0.68 10 0 C12.1875 0.375 12.1875 0.375 14 1 C12.54744301 4.82946843 10.57104439 6.12050295 7 8 C5 5 5 5 5 2 C4.01 2 3.02 2 2 2 C1.67 11.57 1.34 21.14 1 31 C0.67 31 0.34 31 0 31 C0 20.77 0 10.54 0 0 Z " fill="#1A3749" transform="translate(153,457)"/>
<path d="M0 0 C0 0.66 0 1.32 0 2 C3.96 2 7.92 2 12 2 C12.33 2.66 12.66 3.32 13 4 C12.34773438 3.95359375 11.69546875 3.9071875 11.0234375 3.859375 C5.09011168 3.6143409 1.64138262 3.91116293 -3 8 C-5.32277416 10.6091387 -5.32277416 10.6091387 -7 13 C-6.67 11.02 -6.34 9.04 -6 7 C-7.70840281 8.63412443 -8.93453047 9.86906094 -10 12 C-10.66 12 -11.32 12 -12 12 C-10.40261891 6.9174238 -5.94094179 0 0 0 Z " fill="#164058" transform="translate(49,445)"/>
<path d="M0 0 C0.33 9.57 0.66 19.14 1 29 C0.34 29 -0.32 29 -1 29 C-1 26.03 -1 23.06 -1 20 C-1.66 20 -2.32 20 -3 20 C-4.15316726 13.65758005 -4.09507063 7.43311296 -4 1 C-1 0 -1 0 0 0 Z " fill="#155177" transform="translate(351,443)"/>
<path d="M0 0 C0.66 0.33 1.32 0.66 2 1 C2.21824777 7.0018137 1.5056904 12.19233704 0 18 C-1.98 18.33 -3.96 18.66 -6 19 C-5.79503906 18.443125 -5.59007813 17.88625 -5.37890625 17.3125 C-3.9927064 13.38603917 -2.84925526 9.71817805 -2.4375 5.5625 C-2 2 -2 2 0 0 Z " fill="#124D71" transform="translate(73,463)"/>
<path d="M0 0 C2.62506802 -0.02690844 5.24986173 -0.04679404 7.875 -0.0625 C8.62136719 -0.07087891 9.36773437 -0.07925781 10.13671875 -0.08789062 C15.7734375 -0.11328125 15.7734375 -0.11328125 18 1 C18 1.66 18 2.32 18 3 C13.05 3 8.1 3 3 3 C3 5.31 3 7.62 3 10 C2.01 10.33 1.02 10.66 0 11 C0 7.37 0 3.74 0 0 Z " fill="#134D71" transform="translate(241,445)"/>
<path d="M0 0 C0.33 0 0.66 0 1 0 C1 9.57 1 19.14 1 29 C1.99 29 2.98 29 4 29 C4.01981934 28.40461426 4.03963867 27.80922852 4.06005859 27.19580078 C4.15516126 24.50507847 4.26489842 21.81514852 4.375 19.125 C4.42140625 17.71927734 4.42140625 17.71927734 4.46875 16.28515625 C4.50742187 15.38925781 4.54609375 14.49335938 4.5859375 13.5703125 C4.6173584 12.74289551 4.6487793 11.91547852 4.68115234 11.06298828 C5 9 5 9 7 7 C6.86185777 10.9794733 6.71320326 14.95848415 6.5625 18.9375 C6.52318359 20.07380859 6.48386719 21.21011719 6.44335938 22.38085938 C6.40146484 23.46044922 6.35957031 24.54003906 6.31640625 25.65234375 C6.27974854 26.65257568 6.24309082 27.65280762 6.20532227 28.68334961 C6 31 6 31 5 32 C3.35 32 1.7 32 0 32 C0 21.44 0 10.88 0 0 Z " fill="#1D3A4B" transform="translate(308,457)"/>
<path d="M0 0 C1.65 0 3.3 0 5 0 C6 1 6 1 6.11352539 3.59204102 C6.10828857 4.71795654 6.10305176 5.84387207 6.09765625 7.00390625 C6.09443359 8.21884766 6.09121094 9.43378906 6.08789062 10.68554688 C6.07951172 11.96494141 6.07113281 13.24433594 6.0625 14.5625 C6.05798828 15.84576172 6.05347656 17.12902344 6.04882812 18.45117188 C6.03699545 21.63416022 6.02051068 24.81705762 6 28 C6.66 28.33 7.32 28.66 8 29 C7.01 29 6.02 29 5 29 C4.67 20.75 4.34 12.5 4 4 C3.34 4 2.68 4 2 4 C1.67 10.27 1.34 16.54 1 23 C0.67 23 0.34 23 0 23 C0 15.41 0 7.82 0 0 Z " fill="#15384B" transform="translate(346,441)"/>
<path d="M0 0 C-4.75 2 -4.75 2 -7 2 C-7 3.32 -7 4.64 -7 6 C-9.30371143 7.66379159 -11.58066061 8.82028312 -14.1875 9.9375 C-16.45644863 11.26757334 -17.03874684 12.59686711 -18 15 C-17.25531915 7.25531915 -17.25531915 7.25531915 -14 4 C-13.34 4 -12.68 4 -12 4 C-12 3.34 -12 2.68 -12 2 C-10.75579353 1.4654744 -9.50429064 0.94791389 -8.25 0.4375 C-7.55390625 0.14746094 -6.8578125 -0.14257812 -6.140625 -0.44140625 C-3.69987216 -1.07831803 -2.3596345 -0.80248831 0 0 Z " fill="#2C5772" transform="translate(148,111)"/>
<path d="M0 0 C0.66 0.33 1.32 0.66 2 1 C0.47647013 2.52352987 -1.04152123 4.03832729 -2.625 5.5 C-4.248892 7.0667759 -4.248892 7.0667759 -5 10 C-6.65 9.67 -8.3 9.34 -10 9 C-10 9.66 -10 10.32 -10 11 C-12.1171875 12.54296875 -12.1171875 12.54296875 -14.875 14.1875 C-15.77992187 14.73792969 -16.68484375 15.28835937 -17.6171875 15.85546875 C-18.40351562 16.23316406 -19.18984375 16.61085938 -20 17 C-20.66 16.67 -21.32 16.34 -22 16 C-15.87689993 10.96346257 -9.67124455 6.28378485 -3 2 C-2.01 1.34 -1.02 0.68 0 0 Z " fill="#184156" transform="translate(139,33)"/>
<path d="M0 0 C2.475 0.99 2.475 0.99 5 2 C5.26092518 21.01854615 5.26092518 21.01854615 2.6875 25.0625 C1 26 1 26 -1.1875 25.6875 C-1.785625 25.460625 -2.38375 25.23375 -3 25 C-2.34 24.67 -1.68 24.34 -1 24 C1.8954371 19.34334811 2.38281055 15.7480464 2.3125 10.3125 C2.30863281 9.00925781 2.30476563 7.70601563 2.30078125 6.36328125 C2.25864875 2.86972813 2.25864875 2.86972813 0 0 Z " fill="#436982" transform="translate(414,282)"/>
<path d="M0 0 C1.051875 0.12375 2.10375 0.2475 3.1875 0.375 C1.76976538 3.91933654 0.51137762 4.71306119 -2.8125 6.375 C-4.08054566 8.4085948 -4.08054566 8.4085948 -4.8125 10.375 C-6.1325 9.055 -7.4525 7.735 -8.8125 6.375 C-4.75096154 0.46730769 -4.75096154 0.46730769 0 0 Z " fill="#173D55" transform="translate(366.8125,456.625)"/>
<path d="M0 0 C0.99 0.495 0.99 0.495 2 1 C2.33 7.93 2.66 14.86 3 22 C3.99 22.33 4.98 22.66 6 23 C6 15.74 6 8.48 6 1 C6.33 1 6.66 1 7 1 C7 8.59 7 16.18 7 24 C5.35 24.33 3.7 24.66 2 25 C0.28556781 23.28556781 0.76947033 20.99554759 0.68359375 18.65234375 C0.64169922 17.57275391 0.59980469 16.49316406 0.55664062 15.38085938 C0.51732422 14.24455078 0.47800781 13.10824219 0.4375 11.9375 C0.39431641 10.79732422 0.35113281 9.65714844 0.30664062 8.48242188 C0.20017161 5.65507805 0.09815793 2.82764262 0 0 Z " fill="#1F3A4B" transform="translate(329,464)"/>
<path d="M0 0 C2.5625 1.875 2.5625 1.875 4 4 C4 4.66 4 5.32 4 6 C3.01 6.495 3.01 6.495 2 7 C1.34227572 10.02934491 1.34227572 10.02934491 1 13 C0.67 13 0.34 13 0 13 C-0.28875 11.9275 -0.5775 10.855 -0.875 9.75 C-1.72820109 6.90599636 -2.5636503 4.56491017 -4 2 C-6.64 2 -9.28 2 -12 2 C-7.99764065 -0.66823957 -4.70618084 -0.71357255 0 0 Z " fill="#154663" transform="translate(211,457)"/>
<path d="M0 0 C0 0.66 0 1.32 0 2 C1.32 2.66 2.64 3.32 4 4 C4 4.66 4 5.32 4 6 C2.68 5.67 1.36 5.34 0 5 C0 5.66 0 6.32 0 7 C-0.556875 6.71125 -1.11375 6.4225 -1.6875 6.125 C-7.18010681 3.45292101 -11.94314744 2.50143877 -18 2 C-18 1.67 -18 1.34 -18 1 C-15.93769732 0.8309093 -13.8751477 0.66482867 -11.8125 0.5 C-10.08966797 0.36078125 -10.08966797 0.36078125 -8.33203125 0.21875 C-5.53927574 0.0354038 -2.79680188 -0.04213637 0 0 Z " fill="#1A4057" transform="translate(263,466)"/>
<path d="M0 0 C-0.4640625 0.7425 -0.4640625 0.7425 -0.9375 1.5 C-2.41644382 4.97986781 -2.62402851 8.24028509 -3 12 C-4.32 11.67 -5.64 11.34 -7 11 C-7.28782489 7.94905619 -7.44653726 5.03968138 -7 2 C-3.05660377 -1.52830189 -3.05660377 -1.52830189 0 0 Z " fill="#104D70" transform="translate(281,473)"/>
<path d="M0 0 C7.07072692 0.23968566 7.07072692 0.23968566 10.75 3.25 C14.47426013 8.06490041 13.5244058 14.09812201 13.3125 19.875 C13.27866211 21.62296875 13.27866211 21.62296875 13.24414062 23.40625 C13.18541297 26.27215945 13.10332875 29.13540922 13 32 C12.67 32 12.34 32 12 32 C11.97494385 31.31897217 11.9498877 30.63794434 11.92407227 29.9362793 C11.80809048 26.85316245 11.68537384 23.77034954 11.5625 20.6875 C11.52318359 19.61564453 11.48386719 18.54378906 11.44335938 17.43945312 C11.40146484 16.41142578 11.35957031 15.38339844 11.31640625 14.32421875 C11.27974854 13.37635498 11.24309082 12.42849121 11.20532227 11.4519043 C11.08569813 8.863829 11.08569813 8.863829 10 6 C8.6078125 5.5359375 8.6078125 5.5359375 7.1875 5.0625 C3.77299491 3.92433164 2.3239609 2.68149334 0 0 Z " fill="#193B4F" transform="translate(168,456)"/>
<path d="M0 0 C0.33 0.66 0.66 1.32 1 2 C-1.64 1.67 -4.28 1.34 -7 1 C-7.33 1.66 -7.66 2.32 -8 3 C-8.99 3 -9.98 3 -11 3 C-11 3.66 -11 4.32 -11 5 C-13.5 6.625 -13.5 6.625 -16 8 C-16 7.01 -16 6.02 -16 5 C-16.66 4.67 -17.32 4.34 -18 4 C-17.67 2.68 -17.34 1.36 -17 0 C-16.67 0.66 -16.34 1.32 -16 2 C-15.030625 1.484375 -14.06125 0.96875 -13.0625 0.4375 C-8.71316206 -1.44810254 -4.53507267 -1.29434477 0 0 Z " fill="#1D4057" transform="translate(417,457)"/>
<path d="M0 0 C-0.99 0.495 -0.99 0.495 -2 1 C-1.01 1.99 -0.02 2.98 1 4 C-5.435 4.495 -5.435 4.495 -12 5 C-11.67 3.35 -11.34 1.7 -11 0 C-3.375 -1.125 -3.375 -1.125 0 0 Z " fill="#163D54" transform="translate(288,457)"/>
<path d="M0 0 C0.33 0 0.66 0 1 0 C1 6.27 1 12.54 1 19 C-0.32 18.67 -1.64 18.34 -3 18 C-3.125 10.375 -3.125 10.375 -2 7 C-1.34 7 -0.68 7 0 7 C0 4.69 0 2.38 0 0 Z " fill="#195378" transform="translate(158,469)"/>
<path d="M0 0 C0 0.99 0 1.98 0 3 C-1.81115956 4.81115956 -4.61278227 4.38199448 -7.0625 4.5625 C-8.16722656 4.64628906 -9.27195312 4.73007812 -10.41015625 4.81640625 C-11.69212891 4.90728516 -11.69212891 4.90728516 -13 5 C-13 5.66 -13 6.32 -13 7 C-9.37 7 -5.74 7 -2 7 C-2 7.33 -2 7.66 -2 8 C-3.91635217 8.05423638 -5.83314925 8.09289963 -7.75 8.125 C-9.35101563 8.15980469 -9.35101563 8.15980469 -10.984375 8.1953125 C-13.92470106 8.00487687 -15.52361878 7.52670104 -18 6 C-17.67 4.68 -17.34 3.36 -17 2 C-15.41058594 2.03480469 -15.41058594 2.03480469 -13.7890625 2.0703125 C-12.4010487 2.08906944 -11.0130273 2.10726972 -9.625 2.125 C-8.92632812 2.14175781 -8.22765625 2.15851563 -7.5078125 2.17578125 C-5.67102514 2.19344267 -3.83398037 2.10303261 -2 2 C-1.34 1.34 -0.68 0.68 0 0 Z " fill="#163851" transform="translate(451,495)"/>
<path d="M0 0 C0.66 0.33 1.32 0.66 2 1 C2.625 3.5625 2.625 3.5625 3 6 C3.66 6 4.32 6 5 6 C6.625 8 6.625 8 8 10 C7.01 10 6.02 10 5 10 C5.33 11.32 5.66 12.64 6 14 C1.3697479 12.53781513 1.3697479 12.53781513 -0.375 10 C-1 8 -1 8 0 6 C0.039992 4.00039988 0.04346799 1.99952758 0 0 Z " fill="#163F5A" transform="translate(42,474)"/>
<path d="M0 0 C1.0625 1.875 1.0625 1.875 2 4 C1 6 1 6 -2.0625 7.125 C-3.031875 7.41375 -4.00125 7.7025 -5 8 C-5.0825 8.7425 -5.165 9.485 -5.25 10.25 C-6.14809799 13.54302595 -7.38416074 14.85976788 -10 17 C-10.66 17 -11.32 17 -12 17 C-10.53416665 12.45928635 -7.95468267 9.23733031 -4.875 5.6875 C-4.40707031 5.13771484 -3.93914062 4.58792969 -3.45703125 4.02148438 C-2.31047517 2.67603591 -1.15602549 1.337321 0 0 Z " fill="#1B4054" transform="translate(92,73)"/>
<path d="M0 0 C2.5 0.125 2.5 0.125 3.5 1.125 C3.625 3.625 3.625 3.625 3.5 6.125 C2.5 7.125 2.5 7.125 0 7.25 C-2.5 7.125 -2.5 7.125 -3.5 6.125 C-3.625 3.625 -3.625 3.625 -3.5 1.125 C-2.5 0.125 -2.5 0.125 0 0 Z " fill="#1B455D" transform="translate(381.5,443.875)"/>
<path d="M0 0 C2.5 0.125 2.5 0.125 3.5 1.125 C3.625 3.625 3.625 3.625 3.5 6.125 C2.5 7.125 2.5 7.125 0 7.25 C-2.5 7.125 -2.5 7.125 -3.5 6.125 C-3.625 3.625 -3.625 3.625 -3.5 1.125 C-2.5 0.125 -2.5 0.125 0 0 Z " fill="#1D3B4F" transform="translate(140.5,443.875)"/>
<path d="M0 0 C0.88945312 0.07863281 1.77890625 0.15726562 2.6953125 0.23828125 C3.77425781 0.46064453 3.77425781 0.46064453 4.875 0.6875 C5.205 1.3475 5.535 2.0075 5.875 2.6875 C4.885 3.0175 3.895 3.3475 2.875 3.6875 C2.14176204 5.70258358 2.14176204 5.70258358 1.875 7.6875 C0.885 7.0275 -0.105 6.3675 -1.125 5.6875 C-1.125 4.6975 -1.125 3.7075 -1.125 2.6875 C-3.765 2.6875 -6.405 2.6875 -9.125 2.6875 C-7.20737183 -1.14775635 -3.73493926 -0.3647827 0 0 Z " fill="#18415A" transform="translate(326.125,456.3125)"/>
<path d="M0 0 C-0.90172468 1.17825358 -1.82201502 2.34231577 -2.75 3.5 C-3.51570313 4.47453125 -3.51570313 4.47453125 -4.296875 5.46875 C-6 7 -6 7 -10 7 C-10 5.68 -10 4.36 -10 3 C-9.34 3 -8.68 3 -8 3 C-8 2.34 -8 1.68 -8 1 C-5.29120665 -0.35439668 -2.99066732 -0.06501451 0 0 Z " fill="#144461" transform="translate(396,346)"/>
<path d="M0 0 C1.32 0.33 2.64 0.66 4 1 C4 1.33 4 1.66 4 2 C6.31 2 8.62 2 11 2 C11.82638376 4.89234315 12 6.88742431 12 10 C8.78727751 8.56006357 6.3793336 6.76981628 3.75 4.4375 C3.04359375 3.81746094 2.3371875 3.19742187 1.609375 2.55859375 C1.07828125 2.04425781 0.5471875 1.52992188 0 1 C0 0.67 0 0.34 0 0 Z " fill="#12425B" transform="translate(105,352)"/>
<path d="M0 0 C0.66 0.66 1.32 1.32 2 2 C2.99 2 3.98 2 5 2 C3.49860488 6.20390632 0.82724957 7.89110738 -3 10 C-3.99 9.67 -4.98 9.34 -6 9 C-5.34 9 -4.68 9 -4 9 C-4 8.34 -4 7.68 -4 7 C-3.01 7 -2.02 7 -1 7 C-1 6.34 -1 5.68 -1 5 C-1.99 4.67 -2.98 4.34 -4 4 C-2.68 2.68 -1.36 1.36 0 0 Z " fill="#17425D" transform="translate(67,479)"/>
<path d="M0 0 C2.97 0 5.94 0 9 0 C9.33 0.66 9.66 1.32 10 2 C9.34 2 8.68 2 8 2 C8 2.66 8 3.32 8 4 C5.125 4.625 5.125 4.625 2 5 C1.34 4.34 0.68 3.68 0 3 C0 2.01 0 1.02 0 0 Z " fill="#1B5272" transform="translate(375,292)"/>
<path d="M0 0 C0.33 0 0.66 0 1 0 C1 5.61 1 11.22 1 17 C3.97 17 6.94 17 10 17 C10 17.33 10 17.66 10 18 C6.37 18 2.74 18 -1 18 C-1.33 16.68 -1.66 15.36 -2 14 C-1.34 14 -0.68 14 0 14 C0 9.38 0 4.76 0 0 Z M-3 18 C-2.34 18 -1.68 18 -1 18 C-1.33 18.66 -1.66 19.32 -2 20 C-2.33 19.34 -2.66 18.68 -3 18 Z " fill="#183D57" transform="translate(244,468)"/>
<path d="M0 0 C-2.6666419 1.33332095 -4.16680303 0.67102033 -7 0 C-7 0.66 -7 1.32 -7 2 C-6.34 2.33 -5.68 2.66 -5 3 C-6.65 3 -8.3 3 -10 3 C-10 2.01 -10 1.02 -10 0 C-11.98 0.33 -13.96 0.66 -16 1 C-15 -1 -15 -1 -13.375 -1.625 C-8.53286768 -2.38954721 -4.24261664 -2.71527465 0 0 Z " fill="#1B3B50" transform="translate(452,458)"/>
<path d="M0 0 C0.66 0.33 1.32 0.66 2 1 C-0.13637096 6.21592698 -2.17398376 10.76405345 -6 15 C-6.50130606 9.73628638 -5.31168629 7.0909066 -2 3 C-1.34 3 -0.68 3 0 3 C0 2.01 0 1.02 0 0 Z " fill="#174057" transform="translate(431,292)"/>
<path d="M0 0 C1.32 0 2.64 0 4 0 C4 0.66 4 1.32 4 2 C3.01 2 2.02 2 1 2 C1 2.66 1 3.32 1 4 C-2.37097383 5.49821059 -4.20442119 6 -8 6 C-8 5.01 -8 4.02 -8 3 C-6.865625 2.690625 -5.73125 2.38125 -4.5625 2.0625 C-1.21224901 1.37075469 -1.21224901 1.37075469 0 0 Z " fill="#164C6E" transform="translate(62,484)"/>
<path d="M0 0 C1.32 0.66 2.64 1.32 4 2 C3.67 3.65 3.34 5.3 3 7 C0 8 0 8 -3 7 C-3.33 6.01 -3.66 5.02 -4 4 C-3.34 4 -2.68 4 -2 4 C-2 3.34 -2 2.68 -2 2 C-1.34 2 -0.68 2 0 2 C0 1.34 0 0.68 0 0 Z " fill="#1F5576" transform="translate(379,96)"/>
<path d="M0 0 C-0.66 1.98 -1.32 3.96 -2 6 C-5.65316671 4.75023244 -6.78065836 4.32901247 -9 1 C-3.375 -1.125 -3.375 -1.125 0 0 Z " fill="#2B5B7D" transform="translate(142,259)"/>
<path d="M0 0 C0.33 0 0.66 0 1 0 C2.125 5.625 2.125 5.625 1 9 C0.93334624 10.39439664 0.91461801 11.79169875 0.9375 13.1875 C0.958125 14.445625 0.97875 15.70375 1 17 C0.34 17 -0.32 17 -1 17 C-1.33 17.99 -1.66 18.98 -2 20 C-1.85919445 17.22882696 -1.71256882 14.45817359 -1.5625 11.6875 C-1.52318359 10.90181641 -1.48386719 10.11613281 -1.44335938 9.30664062 C-1.40146484 8.54931641 -1.35957031 7.79199219 -1.31640625 7.01171875 C-1.27974854 6.31522217 -1.24309082 5.61872559 -1.20532227 4.90112305 C-1 3 -1 3 0 0 Z " fill="#1E4155" transform="translate(45,171)"/>
<path d="M0 0 C1.485 0.99 1.485 0.99 3 2 C3.375 5 3.375 5 3 8 C2.01 8.66 1.02 9.32 0 10 C-1 9 -1 9 -1.125 5.5625 C-1 2 -1 2 0 0 Z " fill="#0F4D71" transform="translate(262,449)"/>
<path d="M0 0 C0.66 0.33 1.32 0.66 2 1 C1.52389341 5.99911924 -0.03162219 8.97832683 -3 13 C-4.0326802 10.21176345 -4.04509293 9.1322726 -3.0625 6.25 C-2.711875 5.5075 -2.36125 4.765 -2 4 C-1.34 4 -0.68 4 0 4 C0 2.68 0 1.36 0 0 Z " fill="#285574" transform="translate(364,249)"/>
<path d="M0 0 C0.33 0 0.66 0 1 0 C1.28571429 8.57142857 1.28571429 8.57142857 -1 12 C-1.99 12 -2.98 12 -4 12 C-4.33 10.68 -4.66 9.36 -5 8 C-3.68 8.33 -2.36 8.66 -1 9 C-1.020625 7.700625 -1.04125 6.40125 -1.0625 5.0625 C-1.08399454 3.70834367 -1.07148199 2.35243917 -1 1 C-0.67 0.67 -0.34 0.34 0 0 Z " fill="#14384E" transform="translate(279,476)"/>
<path d="M0 0 C1.65 0 3.3 0 5 0 C3.98545548 2.5363613 3.3146444 3.79351461 1 5.3125 C0.34 5.539375 -0.32 5.76625 -1 6 C-1.66 5.67 -2.32 5.34 -3 5 C-2.67 4.01 -2.34 3.02 -2 2 C-1.34 2 -0.68 2 0 2 C0 1.34 0 0.68 0 0 Z " fill="#1A4B65" transform="translate(365,457)"/>
<path d="M0 0 C1 2 1 2 0.25 5.4375 C-1.51635112 10.47160069 -1.51635112 10.47160069 -4 12 C-6.1875 11.6875 -6.1875 11.6875 -8 11 C-7.01 10.67 -6.02 10.34 -5 10 C-3.91568906 8.25132517 -3.91568906 8.25132517 -3 6 C-2 4 -1 2 0 0 Z " fill="#C5D6E1" transform="translate(366,252)"/>
<path d="M0 0 C6.875 3.75 6.875 3.75 8 6 C5.66705225 6.04241723 3.33297433 6.04092937 1 6 C0 5 0 5 -0.0625 2.4375 C-0.041875 1.633125 -0.02125 0.82875 0 0 Z " fill="#285672" transform="translate(353,111)"/>
<path d="M0 0 C0.66 0.33 1.32 0.66 2 1 C0.47647013 2.52352987 -1.04152123 4.03832729 -2.625 5.5 C-4.248892 7.0667759 -4.248892 7.0667759 -5 10 C-5.66 10 -6.32 10 -7 10 C-7.33 9.01 -7.66 8.02 -8 7 C-5.42215154 4.35247996 -3.08351902 2.05567935 0 0 Z " fill="#184763" transform="translate(139,33)"/>
<path d="M0 0 C-2.98440561 1.54078615 -6.01007758 2.86973276 -9.125 4.125 C-9.99382812 4.47820312 -10.86265625 4.83140625 -11.7578125 5.1953125 C-14 6 -14 6 -16 6 C-15.67 5.01 -15.34 4.02 -15 3 C-14.01 3.33 -13.02 3.66 -12 4 C-12 3.34 -12 2.68 -12 2 C-7.8803623 0.70756464 -4.33168317 -0.26252625 0 0 Z " fill="#143E51" transform="translate(325,394)"/>
<path d="M0 0 C0.33 1.32 0.66 2.64 1 4 C-1.70879335 5.35439668 -4.00933268 5.06501451 -7 5 C-6 2 -6 2 -4.0625 0.8125 C-2 0 -2 0 0 0 Z " fill="#1A5171" transform="translate(384,298)"/>
<path d="M0 0 C0.33 0.66 0.66 1.32 1 2 C3.31 2 5.62 2 8 2 C7.01 2.495 7.01 2.495 6 3 C6 3.66 6 4.32 6 5 C3.69 5 1.38 5 -1 5 C-0.67 3.35 -0.34 1.7 0 0 Z " fill="#174A6A" transform="translate(279,484)"/>
<path d="M0 0 C1.0625 1.8125 1.0625 1.8125 2 4 C1.67 4.99 1.34 5.98 1 7 C0.34 7 -0.32 7 -1 7 C-1 8.65 -1 10.3 -1 12 C-1.66 12 -2.32 12 -3 12 C-2.40075776 7.80530429 -1.42500059 3.99000166 0 0 Z " fill="#1D4056" transform="translate(53,140)"/>
<path d="M0 0 C0.66 0.66 1.32 1.32 2 2 C1.649375 3.093125 1.29875 4.18625 0.9375 5.3125 C-0.33039454 8.90920373 -0.33039454 8.90920373 1 12 C0.01 11.67 -0.98 11.34 -2 11 C-2.05399736 9.54207116 -2.09279177 8.08357288 -2.125 6.625 C-2.15980469 5.40683594 -2.15980469 5.40683594 -2.1953125 4.1640625 C-2 2 -2 2 0 0 Z " fill="#1B4864" transform="translate(276,473)"/>
<path d="M0 0 C0.66 0.66 1.32 1.32 2 2 C4.57061311 2.64767793 4.57061311 2.64767793 7 3 C7 3.66 7 4.32 7 5 C4.5 6.625 4.5 6.625 2 8 C2 7.01 2 6.02 2 5 C1.34 4.67 0.68 4.34 0 4 C0 2.68 0 1.36 0 0 Z " fill="#18374B" transform="translate(399,457)"/>
<path d="M0 0 C1.32 0 2.64 0 4 0 C4 4.29 4 8.58 4 13 C3.67 13 3.34 13 3 13 C2.92652344 12.04287109 2.92652344 12.04287109 2.8515625 11.06640625 C2.77679688 10.24011719 2.70203125 9.41382813 2.625 8.5625 C2.55539063 7.73878906 2.48578125 6.91507812 2.4140625 6.06640625 C2.27742188 5.38449219 2.14078125 4.70257813 2 4 C1.34 3.67 0.68 3.34 0 3 C0 2.01 0 1.02 0 0 Z " fill="#123C54" transform="translate(38,459)"/>
<path d="M0 0 C1.98 0.495 1.98 0.495 4 1 C4 2.32 4 3.64 4 5 C2.35 5 0.7 5 -1 5 C-0.67 3.35 -0.34 1.7 0 0 Z " fill="#134869" transform="translate(139,446)"/>
<path d="M0 0 C1.0625 1.875 1.0625 1.875 2 4 C0.60804085 6.7839183 -1.15575779 6.97898997 -4 8 C-3.40072174 4.64404172 -2.15377564 2.62198774 0 0 Z " fill="#154462" transform="translate(92,73)"/>
<path d="M0 0 C0.66 0.33 1.32 0.66 2 1 C2.625 3.0625 2.625 3.0625 3 5 C-1 5 -1 5 -2.75 3.5 C-3.1625 3.005 -3.575 2.51 -4 2 C-2.125 0.9375 -2.125 0.9375 0 0 Z " fill="#174761" transform="translate(173,16)"/>
<path d="M0 0 C-0.33 1.32 -0.66 2.64 -1 4 C-1.66 3.67 -2.32 3.34 -3 3 C-2.67 2.34 -2.34 1.68 -2 1 C-5.3 1 -8.6 1 -12 1 C-12 0.67 -12 0.34 -12 0 C-3.42857143 -1.28571429 -3.42857143 -1.28571429 0 0 Z " fill="#1E3645" transform="translate(215,485)"/>
<path d="M0 0 C0.33 0 0.66 0 1 0 C1 3.3 1 6.6 1 10 C-0.32 9.34 -1.64 8.68 -3 8 C-2.5359375 7.13375 -2.5359375 7.13375 -2.0625 6.25 C-1.07416636 4.15705816 -0.4831387 2.25464725 0 0 Z " fill="#155278" transform="translate(350,478)"/>
<path d="M0 0 C1.98 0.495 1.98 0.495 4 1 C4 2.65 4 4.3 4 6 C1.525 5.01 1.525 5.01 -1 4 C-0.67 2.68 -0.34 1.36 0 0 Z " fill="#124D72" transform="translate(263,471)"/>
<path d="M0 0 C0.33 0.66 0.66 1.32 1 2 C2.65 2 4.3 2 6 2 C4.68 3.32 3.36 4.64 2 6 C0.68 4.68 -0.64 3.36 -2 2 C-1.34 2 -0.68 2 0 2 C0 1.34 0 0.68 0 0 Z " fill="#154763" transform="translate(371,361)"/>
<path d="M0 0 C2.475 0.99 2.475 0.99 5 2 C5 6.29 5 10.58 5 15 C4.67 15 4.34 15 4 15 C3.96261719 14.25234375 3.92523438 13.5046875 3.88671875 12.734375 C3.82097656 11.74953125 3.75523437 10.7646875 3.6875 9.75 C3.62949219 8.77546875 3.57148438 7.8009375 3.51171875 6.796875 C2.95363476 3.74658389 2.03630224 2.29288724 0 0 Z " fill="#325A75" transform="translate(414,282)"/>
<path d="M0 0 C0.99 0.66 1.98 1.32 3 2 C3 2.66 3 3.32 3 4 C2.01 4.495 2.01 4.495 1 5 C0.34227572 8.02934491 0.34227572 8.02934491 0 11 C-0.33 11 -0.66 11 -1 11 C-1.33 8.03 -1.66 5.06 -2 2 C-1.34 2 -0.68 2 0 2 C0 1.34 0 0.68 0 0 Z " fill="#173F5A" transform="translate(212,459)"/>
<path d="M0 0 C2.64465038 3.1254959 3.84414715 6.08788267 5 10 C3.0625 9.5 3.0625 9.5 1 8 C0.31209578 5.30341548 0.18053536 2.7982981 0 0 Z " fill="#1A4259" transform="translate(428,110)"/>
<path d="M0 0 C1.134375 0.020625 2.26875 0.04125 3.4375 0.0625 C3.4375 0.7225 3.4375 1.3825 3.4375 2.0625 C0.9375 3.6875 0.9375 3.6875 -1.5625 5.0625 C-1.8925 4.0725 -2.2225 3.0825 -2.5625 2.0625 C-3.2225 1.7325 -3.8825 1.4025 -4.5625 1.0625 C-3.5625 0.0625 -3.5625 0.0625 0 0 Z " fill="#144660" transform="translate(281.5625,470.9375)"/>
<path d="M0 0 C1.43088528 2.86177057 0.59991697 4.93375773 0 8 C-1.32 8.33 -2.64 8.66 -4 9 C-2.94124926 5.59687262 -1.99097846 2.98646769 0 0 Z " fill="#19425B" transform="translate(67,109)"/>
<path d="M0 0 C2.97 0 5.94 0 9 0 C9 1.32 9 2.64 9 4 C6 3 3 2 0 1 C0 0.67 0 0.34 0 0 Z " fill="#1D4052" transform="translate(283,469)"/>
<path d="M0 0 C1.2065625 0.0309375 1.2065625 0.0309375 2.4375 0.0625 C2.4375 1.0525 2.4375 2.0425 2.4375 3.0625 C3.0975 3.3925 3.7575 3.7225 4.4375 4.0625 C1.06287285 3.51526317 -0.64485 3.0076 -3.5625 1.0625 C-2.5625 0.0625 -2.5625 0.0625 0 0 Z " fill="#124E6F" transform="translate(288.5625,456.9375)"/>
<path d="M0 0 C0.99 0.33 1.98 0.66 3 1 C2.34 3.31 1.68 5.62 1 8 C0.67 8 0.34 8 0 8 C-1.125 2.25 -1.125 2.25 0 0 Z " fill="#164665" transform="translate(434,281)"/>
<path d="M0 0 C0.66 0 1.32 0 2 0 C2.33 2.64 2.66 5.28 3 8 C2.34 8 1.68 8 1 8 C0.67 5.36 0.34 2.72 0 0 Z " fill="#28556F" transform="translate(362,119)"/>
<path d="M0 0 C-3.96697886 1.80317221 -7.6822542 2.49202991 -12 3 C-4.82142857 -1.78571429 -4.82142857 -1.78571429 0 0 Z " fill="#4A6E87" transform="translate(148,111)"/>
<path d="M0 0 C1.32 0.33 2.64 0.66 4 1 C4.33 2.32 4.66 3.64 5 5 C3.68 4.67 2.36 4.34 1 4 C0.67 2.68 0.34 1.36 0 0 Z " fill="#114D74" transform="translate(359,476)"/>
<path d="M0 0 C1.5 1.1875 1.5 1.1875 3 3 C3.1875 5.6875 3.1875 5.6875 3 8 C2.01 7.67 1.02 7.34 0 7 C0 4.69 0 2.38 0 0 Z " fill="#17435C" transform="translate(332,459)"/>
<path d="M0 0 C1.32 0.33 2.64 0.66 4 1 C2.66666667 3.66666667 1.33333333 6.33333333 0 9 C0 6.03 0 3.06 0 0 Z " fill="#184A68" transform="translate(309,457)"/>
<path d="M0 0 C1.65 0 3.3 0 5 0 C2.31158141 2.25245881 0.35358125 3.88213958 -3 5 C-3 4.34 -3 3.68 -3 3 C-2.34 3 -1.68 3 -1 3 C-0.67 2.01 -0.34 1.02 0 0 Z " fill="#16425B" transform="translate(347,380)"/>
<path d="M0 0 C0.99 0.33 1.98 0.66 3 1 C3 3.64 3 6.28 3 9 C0.87491756 5.81237635 0.4979837 3.73487777 0 0 Z " fill="#174356" transform="translate(51,263)"/>
<path d="M0 0 C3.77545388 1.09068668 6.47043472 1.9083091 9 5 C8.01 5.33 7.02 5.66 6 6 C5.67 5.34 5.34 4.68 5 4 C3.35636866 3.27840576 1.68949614 2.60648579 0 2 C0 1.34 0 0.68 0 0 Z " fill="#1A3E54" transform="translate(340,25)"/>
</svg>
